<svg fill="none" stroke-linecap="square" stroke-miterlimit="10" viewBox="0 0 645.22047244 397.8687664" xmlns="http://www.w3.org/2000/svg" xmlns:xlink="http://www.w3.org/1999/xlink"><clipPath id="a"><path d="m0 0h645.22046v397.86877h-645.22046z"/></clipPath><g clip-path="url(#a)"><path d="m0 0h645.22046v397.86877h-645.22046z" fill="none"/><g fill-rule="evenodd"><path d="m15.606299 15.7979h614.9921v168h-614.9921z" fill="#d9d2e9"/><path d="m15.606299 15.7979h614.9921v168h-614.9921z" stroke="#000" stroke-linecap="butt" stroke-linejoin="round"/><path d="m169.6063 331.7979c0-9.941132 8.058884-18 18-18 4.7739105 0 9.35228 1.8964233 12.727936 5.272064 3.3756409 3.3756714 5.272064 7.9540405 5.272064 12.727936 0 9.941101-8.058868 18-18 18-9.941116 0-18-8.058899-18-18z" fill="#cfe2f3"/><path d="m169.6063 331.7979c0-9.941132 8.058884-18 18-18 4.7739105 0 9.35228 1.8964233 12.727936 5.272064 3.3756409 3.3756714 5.272064 7.9540405 5.272064 12.727936 0 9.941101-8.058868 18-18 18-9.941116 0-18-8.058899-18-18z" stroke="#000" stroke-linecap="butt" stroke-linejoin="round"/><path d="m305.10236 325.7979c0-9.941132 8.058868-18 18-18 4.7738953 0 9.352264 1.8964233 12.727936 5.272064 3.3756409 3.3756714 5.272064 7.9540405 5.272064 12.727936 0 9.941101-8.058868 18-18 18-9.941132 0-18-8.058899-18-18z" fill="#cfe2f3"/><path d="m305.10236 325.7979c0-9.941132 8.058868-18 18-18 4.7738953 0 9.352264 1.8964233 12.727936 5.272064 3.3756409 3.3756714 5.272064 7.9540405 5.272064 12.727936 0 9.941101-8.058868 18-18 18-9.941132 0-18-8.058899-18-18z" stroke="#000" stroke-linecap="butt" stroke-linejoin="round"/><path d="m424.6063 325.7979c0-9.941132 8.058868-18 18-18 4.7738953 0 9.352264 1.8964233 12.727936 5.272064 3.3756409 3.3756714 5.272064 7.9540405 5.272064 12.727936 0 9.941101-8.058868 18-18 18-9.941132 0-18-8.058899-18-18z" fill="#cfe2f3"/><path d="m424.6063 325.7979c0-9.941132 8.058868-18 18-18 4.7738953 0 9.352264 1.8964233 12.727936 5.272064 3.3756409 3.3756714 5.272064 7.9540405 5.272064 12.727936 0 9.941101-8.058868 18-18 18-9.941132 0-18-8.058899-18-18z" stroke="#000" stroke-linecap="butt" stroke-linejoin="round"/><path d="m258.59842 147.79002h124v36h-124z" fill="#cfe2f3"/><path d="m258.59842 147.79002h124v36h-124z" stroke="#000" stroke-linecap="butt" stroke-linejoin="round"/></g><path d="m268.8328 174.71002v-13.359375h1.640625v4.796875q1.140625-1.328125 2.890625-1.328125 1.078125 0 1.859375.421875.796875.421875 1.140625 1.171875.34375.75.34375 2.171875v6.125h-1.640625v-6.125q0-1.234375-.53125-1.796875-.53125-.5625-1.515625-.5625-.71875 0-1.359375.390625-.640625.375-.921875 1.015625-.265625.640625-.265625 1.78125v5.296875zm16.688232-1.1875q-.921875.765625-1.765625 1.09375-.828125.3125-1.796875.3125-1.59375 0-2.453125-.78125-.859375-.78125-.859375-1.984375 0-.71875.328125-1.296875.328125-.59375.84375-.9375.53125-.359375 1.1875-.546875.46875-.125 1.453125-.25 1.984375-.234375 2.921875-.5625.015625-.34375.015625-.421875 0-1-.46875-1.421875-.625-.546875-1.875-.546875-1.15625 0-1.703125.40625-.546875.40625-.8125 1.421875l-1.609375-.21875q.21875-1.015625.71875-1.640625.5-.640625 1.453125-.984375.953125-.34375 2.1875-.34375 1.25 0 2.015625.296875.78125.28125 1.140625.734375.375.4375.515625 1.109375.078125.421875.078125 1.515625v2.1875q0 2.28125.109375 2.890625.109375.59375.40625 1.15625h-1.703125q-.265625-.515625-.328125-1.1875zm-.140625-3.671875q-.890625.375-2.671875.625-1.015625.140625-1.4375.328125-.421875.1875-.65625.53125-.21875.34375-.21875.78125 0 .65625.5 1.09375.5.4375 1.453125.4375.9375 0 1.671875-.40625.75-.421875 1.09375-1.140625.265625-.5625.265625-1.640625zm4.203827 8.5625v-13.375h1.484375v1.25q.53125-.734375 1.1875-1.09375.671875-.375 1.625-.375 1.234375 0 2.171875.640625.953125.625 1.4375 1.796875.484375 1.15625.484375 2.546875 0 1.484375-.53125 2.671875-.53125 1.1875-1.546875 1.828125-1.015625.625-2.140625.625-.8125 0-1.46875-.34375-.65625-.34375-1.0625-.875v4.703125zm1.484375-8.484375q0 1.859375.75 2.765625.765625.890625 1.828125.890625 1.09375 0 1.875-.921875.78125-.9375.78125-2.875 0-1.84375-.765625-2.765625-.75-.921875-1.8125-.921875-1.046875 0-1.859375.984375-.796875.96875-.796875 2.84375zm8.875732 4.78125v-9.671875h1.46875v1.46875q.5625-1.03125 1.03125-1.359375.484375-.328125 1.0625-.328125.828125 0 1.6875.53125l-.5625 1.515625q-.609375-.359375-1.203125-.359375-.546875 0-.96875.328125-.421875.328125-.609375.890625-.28125.875-.28125 1.921875v5.0625zm5.618927-4.84375q0-2.6875 1.484375-3.96875 1.25-1.078125 3.046875-1.078125 2 0 3.265625 1.3125 1.265625 1.296875 1.265625 3.609375 0 1.859375-.5625 2.9375-.5625 1.0625-1.640625 1.65625-1.0625.59375-2.328125.59375-2.03125 0-3.28125-1.296875-1.25-1.3125-1.25-3.765625zm1.6875 0q0 1.859375.796875 2.796875.8125.921875 2.046875.921875 1.21875 0 2.03125-.921875.8125-.9375.8125-2.84375 0-1.796875-.8125-2.71875-.8125-.921875-2.03125-.921875-1.234375 0-2.046875.921875-.796875.90625-.796875 2.765625zm8.203827 4.84375 3.53125-5.03125-3.265625-4.640625h2.046875l1.484375 2.265625q.421875.640625.671875 1.078125.40625-.59375.734375-1.0625l1.640625-2.28125h1.953125l-3.34375 4.546875 3.59375 5.125h-2.015625l-1.984375-3-.515625-.8125-2.546875 3.8125zm10.34375 3.71875-.1875-1.53125q.546875.140625.9375.140625.546875 0 .875-.1875.328125-.171875.546875-.5.15625-.25.5-1.21875.046875-.140625.140625-.40625l-3.671875-9.6875h1.765625l2.015625 5.59375q.390625 1.078125.703125 2.25.28125-1.125.671875-2.203125l2.078125-5.640625h1.640625l-3.6875 9.828125q-.59375 1.609375-.921875 2.203125-.4375.8125-1 1.1875-.5625.375-1.34375.375-.484375 0-1.0625-.203125zm9.859375-11.53125v-1.859375h1.859375v1.859375zm0 7.8125v-1.875h1.859375v1.875zm9.527069 0v-3.203125h-5.796875v-1.5l6.09375-8.65625h1.34375v8.65625h1.796875v1.5h-1.796875v3.203125zm0-4.703125v-6.015625l-4.1875 6.015625zm10.375702 4.703125v-3.203125h-5.796875v-1.5l6.09375-8.65625h1.34375v8.65625h1.796875v1.5h-1.796875v3.203125zm0-4.703125v-6.015625l-4.1875 6.015625zm5.1257324 1.171875 1.640625-.21875q.28125 1.40625.953125 2.015625.6875.609375 1.65625.609375 1.15625 0 1.953125-.796875.796875-.796875.796875-1.984375 0-1.125-.734375-1.859375-.734375-.734375-1.875-.734375-.46875 0-1.15625.171875l.1875-1.4375q.15625.015625.265625.015625 1.046875 0 1.875-.546875.84375-.546875.84375-1.671875 0-.90625-.609375-1.5-.609375-.59375-1.578125-.59375-.953125 0-1.59375.609375-.640625.59375-.8125 1.796875l-1.640625-.296875q.296875-1.640625 1.359375-2.546875 1.0625-.90625 2.65625-.90625 1.09375 0 2 .46875.921875.46875 1.40625 1.28125.5.8125.5 1.71875 0 .859375-.46875 1.578125-.46875.703125-1.375 1.125 1.1875.28125 1.84375 1.140625.65625.859375.65625 2.15625 0 1.734375-1.28125 2.953125-1.265625 1.21875-3.21875 1.21875-1.765625 0-2.921875-1.046875-1.15625-1.046875-1.328125-2.71875z" fill="#000"/><path d="m40.6063 69.7979h123.99999v46.015755h-123.99999z" fill="#cfe2f3" fill-rule="evenodd"/><path d="m40.6063 69.7979h123.99999v46.015755h-123.99999z" fill-rule="evenodd" stroke="#000" stroke-linecap="butt" stroke-linejoin="round"/><path d="m50.184425 93.82727 1.625-.25q.125.96875.75 1.5.625.515625 1.75.515625 1.125 0 1.671875-.453125.546875-.46875.546875-1.09375 0-.546875-.484375-.875-.328125-.21875-1.671875-.546875-1.8125-.46875-2.515625-.796875-.6875-.328125-1.046875-.90625-.359375-.59375-.359375-1.3125 0-.640625.296875-1.1875.296875-.5625.8125-.921875.375-.28125 1.03125-.46875.671875-.203125 1.421875-.203125 1.140625 0 2 .328125.859375.328125 1.265625.890625.421875.5625.578125 1.5l-1.609375.21875q-.109375-.75-.640625-1.171875-.515625-.421875-1.46875-.421875-1.140625 0-1.625.375-.46875.375-.46875.875 0 .3125.1875.578125.203125.265625.640625.4375.234375.09375 1.4375.421875 1.75.453125 2.4375.75.6875.296875 1.078125.859375.390625.5625.390625 1.40625 0 .828125-.484375 1.546875-.46875.71875-1.375 1.125-.90625.390625-2.046875.390625-1.875 0-2.875-.78125-.984375-.78125-1.25-2.328125zm9.375-1.953125q0-2.6875 1.484375-3.96875 1.25-1.078125 3.046875-1.078125 2 0 3.265625 1.3125 1.265625 1.296875 1.265625 3.609375 0 1.859375-.5625 2.9375-.5625 1.0625-1.640625 1.65625-1.0625.59375-2.328125.59375-2.03125 0-3.28125-1.296875-1.25-1.3125-1.25-3.765625zm1.6875 0q0 1.859375.796875 2.796875.8125.921875 2.046875.921875 1.21875 0 2.03125-.921875.8125-.9375.8125-2.84375 0-1.796875-.8125-2.71875-.8125-.921875-2.03125-.921875-1.234375 0-2.046875.921875-.796875.90625-.796875 2.765625zm15.610092 1.296875 1.609375.21875q-.265625 1.65625-1.359375 2.609375-1.078125.9375-2.671875.9375-1.984375 0-3.1875-1.296875-1.203125-1.296875-1.203125-3.71875 0-1.578125.515625-2.75.515625-1.171875 1.578125-1.75 1.0625-.59375 2.3125-.59375 1.578125 0 2.578125.796875 1 .796875 1.28125 2.265625l-1.59375.234375q-.234375-.96875-.8125-1.453125-.578125-.5-1.390625-.5-1.234375 0-2.015625.890625-.78125.890625-.78125 2.8125 0 1.953125.75 2.84375.75.875 1.953125.875.96875 0 1.609375-.59375.65625-.59375.828125-1.828125zm3.015625 3.546875v-13.359375h1.640625v7.625l3.890625-3.9375h2.109375l-3.6875 3.59375 4.0625 6.078125h-2.015625l-3.203125-4.953125-1.15625 1.125v3.828125zm15.953125-3.109375 1.6875.203125q-.40625 1.484375-1.484375 2.3125-1.078125.8125-2.765625.8125-2.125 0-3.375-1.296875-1.234375-1.3125-1.234375-3.671875 0-2.453125 1.25-3.796875 1.265625-1.34375 3.265625-1.34375 1.9375 0 3.15625 1.328125 1.234375 1.3125 1.234375 3.703125 0 .15625 0 .4375h-7.21875q.09375 1.59375.90625 2.453125.8125.84375 2.015625.84375.90625 0 1.546875-.46875.640625-.484375 1.015625-1.515625zm-5.390625-2.65625h5.40625q-.109375-1.21875-.625-1.828125-.78125-.953125-2.03125-.953125-1.125 0-1.90625.765625-.765625.75-.84375 2.015625zm12.719467 4.296875.234375 1.453125q-.6875.140625-1.234375.140625-.890625 0-1.390625-.28125-.484375-.28125-.6875-.734375-.203125-.46875-.203125-1.9375v-5.578125h-1.203125v-1.265625h1.203125v-2.390625l1.625-.984375v3.375h1.65625v1.265625h-1.65625v5.671875q0 .6875.078125.890625.09375.203125.28125.328125.203125.109375.578125.109375.265625 0 .71875-.0625zm2.0583038-6.34375v-1.859375h1.859375v1.859375zm0 7.8125v-1.875h1.859375v1.875zm6.792679-7.234375q-1.015625-.375-1.515625-1.0625-.484375-.703125-.484375-1.671875 0-1.453125 1.046875-2.4375 1.046875-1 2.78125-1 1.75 0 2.8125 1.015625 1.078125 1.015625 1.078125 2.46875 0 .9375-.5 1.625-.484375.6875-1.46875 1.0625 1.21875.390625 1.859375 1.28125.65625.890625.65625 2.140625 0 1.703125-1.21875 2.875-1.21875 1.171875-3.1875 1.171875-1.984375 0-3.203125-1.171875-1.203125-1.171875-1.203125-2.921875 0-1.3125.65625-2.1875.671875-.875 1.890625-1.1875zm-.328125-2.78125q0 .9375.609375 1.546875.609375.59375 1.59375.59375.9375 0 1.546875-.59375.609375-.59375.609375-1.453125 0-.90625-.625-1.515625-.625-.625-1.5625-.625-.9375 0-1.5625.609375-.609375.59375-.609375 1.4375zm-.53125 6.15625q0 .703125.328125 1.359375.34375.65625 1 1.015625.65625.359375 1.40625.359375 1.171875 0 1.9375-.75.765625-.75.765625-1.921875 0-1.1875-.796875-1.953125-.78125-.78125-1.953125-.78125-1.15625 0-1.921875.765625-.765625.765625-.765625 1.90625zm8.719467-2.734375q0-2.359375.484375-3.796875.484375-1.453125 1.4375-2.234375.96875-.78125 2.421875-.78125 1.078125 0 1.890625.4375.8125.421875 1.328125 1.25.53125.8125.8281174 1.984375.3125 1.15625.3125 3.140625 0 2.359375-.484375 3.8125-.48436737 1.4375-1.4531174 2.234375-.953125.78125-2.421875.78125-1.921875 0-3.03125-1.390625-1.3125-1.671875-1.3125-5.4375zm1.671875 0q0 3.296875.765625 4.390625.78125 1.078125 1.90625 1.078125 1.140625 0 1.90625-1.09375.765625-1.09375.765625-4.375 0-3.296875-.765625-4.375-.765625-1.078125-1.921875-1.078125-1.125 0-1.796875.953125-.859375 1.21875-.859375 4.5zm11.21946-.640625q-1.015625-.375-1.515625-1.0625-.484375-.703125-.484375-1.671875 0-1.453125 1.046875-2.4375 1.046875-1 2.78125-1 1.75 0 2.8125 1.015625 1.078125 1.015625 1.078125 2.46875 0 .9375-.5 1.625-.484375.6875-1.46875 1.0625 1.21875.390625 1.859375 1.28125.65625.890625.65625 2.140625 0 1.703125-1.21875 2.875-1.21875 1.171875-3.1875 1.171875-1.984375 0-3.203125-1.171875-1.203125-1.171875-1.203125-2.921875 0-1.3125.65625-2.1875.671875-.875 1.890625-1.1875zm-.328125-2.78125q0 .9375.609375 1.546875.609375.59375 1.59375.59375.9375 0 1.546875-.59375.609375-.59375.609375-1.453125 0-.90625-.625-1.515625-.625-.625-1.5625-.625-.9375 0-1.5625.609375-.609375.59375-.609375 1.4375zm-.53125 6.15625q0 .703125.328125 1.359375.34375.65625 1 1.015625.65625.359375 1.40625.359375 1.171875 0 1.9375-.75.765625-.75.765625-1.921875 0-1.1875-.796875-1.953125-.78125-.78125-1.953125-.78125-1.15625 0-1.921875.765625-.765625.765625-.765625 1.90625zm8.719467-2.734375q0-2.359375.484375-3.796875.484375-1.453125 1.4375-2.234375.96875-.78125 2.421875-.78125 1.078125 0 1.890625.4375.8125.421875 1.328125 1.25.53125.8125.828125 1.984375.3125 1.15625.3125 3.140625 0 2.359375-.484375 3.8125-.484375 1.4375-1.453125 2.234375-.953125.78125-2.421875.78125-1.921875 0-3.03125-1.390625-1.3125-1.671875-1.3125-5.4375zm1.671875 0q0 3.296875.765625 4.390625.78125 1.078125 1.90625 1.078125 1.140625 0 1.90625-1.09375.765625-1.09375.765625-4.375 0-3.296875-.765625-4.375-.765625-1.078125-1.921875-1.078125-1.125 0-1.796875.953125-.859375 1.21875-.859375 4.5z" fill="#000"/><path d="m188.6063 69.7979h124v46.015755h-124z" fill="#cfe2f3" fill-rule="evenodd"/><path d="m188.6063 69.7979h124v46.015755h-124z" fill-rule="evenodd" stroke="#000" stroke-linecap="butt" stroke-linejoin="round"/><path d="m198.18442 93.82727 1.625-.25q.125.96875.75 1.5.625.515625 1.75.515625 1.125 0 1.671875-.453125.546875-.46875.546875-1.09375 0-.546875-.484375-.875-.328125-.21875-1.671875-.546875-1.8125-.46875-2.515625-.796875-.6875-.328125-1.046875-.90625-.359375-.59375-.359375-1.3125 0-.640625.296875-1.1875.296875-.5625.8125-.921875.375-.28125 1.03125-.46875.671875-.203125 1.421875-.203125 1.140625 0 2 .328125.859375.328125 1.265625.890625.421875.5625.578125 1.5l-1.609375.21875q-.109375-.75-.640625-1.171875-.515625-.421875-1.46875-.421875-1.140625 0-1.625.375-.46875.375-.46875.875 0 .3125.1875.578125.203125.265625.640625.4375.234375.09375 1.4375.421875 1.75.453125 2.4375.75.6875.296875 1.078125.859375.390625.5625.390625 1.40625 0 .828125-.484375 1.546875-.46875.71875-1.375 1.125-.90625.390625-2.046875.390625-1.875 0-2.875-.78125-.984375-.78125-1.25-2.328125zm9.375-1.953125q0-2.6875 1.484375-3.96875 1.25-1.078125 3.046875-1.078125 2 0 3.265625 1.3125 1.265625 1.296875 1.265625 3.609375 0 1.859375-.5625 2.9375-.5625 1.0625-1.640625 1.65625-1.0625.59375-2.328125.59375-2.03125 0-3.28125-1.296875-1.25-1.3125-1.25-3.765625zm1.6875 0q0 1.859375.796875 2.796875.8125.921875 2.046875.921875 1.21875 0 2.03125-.921875.8125-.9375.8125-2.84375 0-1.796875-.8125-2.71875-.8125-.921875-2.03125-.921875-1.234375 0-2.046875.921875-.796875.90625-.796875 2.765625zm15.610092 1.296875 1.609375.21875q-.265625 1.65625-1.359375 2.609375-1.078125.9375-2.671875.9375-1.984375 0-3.1875-1.296875-1.203125-1.296875-1.203125-3.71875 0-1.578125.515625-2.75.515625-1.171875 1.578125-1.75 1.0625-.59375 2.3125-.59375 1.578125 0 2.578125.796875 1 .796875 1.28125 2.265625l-1.59375.234375q-.234375-.96875-.8125-1.453125-.578125-.5-1.390625-.5-1.234375 0-2.015625.890625-.78125.890625-.78125 2.8125 0 1.953125.75 2.84375.75.875 1.953125.875.96875 0 1.609375-.59375.65625-.59375.828125-1.828125zm3.015625 3.546875v-13.359375h1.640625v7.625l3.890625-3.9375h2.109375l-3.6875 3.59375 4.0625 6.078125h-2.015625l-3.203125-4.953125-1.15625 1.125v3.828125zm15.953125-3.109375 1.6875.203125q-.40625 1.484375-1.484375 2.3125-1.078125.8125-2.765625.8125-2.125 0-3.375-1.296875-1.234375-1.3125-1.234375-3.671875 0-2.453125 1.25-3.796875 1.265625-1.34375 3.265625-1.34375 1.9375 0 3.15625 1.328125 1.234375 1.3125 1.234375 3.703125 0 .15625 0 .4375h-7.21875q.09375 1.59375.90625 2.453125.8125.84375 2.015625.84375.90625 0 1.546875-.46875.640625-.484375 1.015625-1.515625zm-5.390625-2.65625h5.40625q-.109375-1.21875-.625-1.828125-.78125-.953125-2.03125-.953125-1.125 0-1.90625.765625-.765625.75-.84375 2.015625zm12.719467 4.296875.234375 1.453125q-.6875.140625-1.234375.140625-.890625 0-1.390625-.28125-.484375-.28125-.6875-.734375-.203125-.46875-.203125-1.9375v-5.578125h-1.203125v-1.265625h1.203125v-2.390625l1.625-.984375v3.375h1.65625v1.265625h-1.65625v5.671875q0 .6875.078125.890625.09375.203125.28125.328125.203125.109375.578125.109375.265625 0 .71875-.0625zm2.0583038-6.34375v-1.859375h1.859375v1.859375zm0 7.8125v-1.875h1.859375v1.875zm6.792679-7.234375q-1.015625-.375-1.515625-1.0625-.484375-.703125-.484375-1.671875 0-1.453125 1.046875-2.4375 1.046875-1 2.78125-1 1.75 0 2.8125 1.015625 1.078125 1.015625 1.078125 2.46875 0 .9375-.5 1.625-.484375.6875-1.46875 1.0625 1.21875.390625 1.859375 1.28125.65625.890625.65625 2.140625 0 1.703125-1.21875 2.875-1.21875 1.171875-3.1875 1.171875-1.984375 0-3.203125-1.171875-1.203125-1.171875-1.203125-2.921875 0-1.3125.65625-2.1875.671875-.875 1.890625-1.1875zm-.328125-2.78125q0 .9375.609375 1.546875.609375.59375 1.59375.59375.9375 0 1.546875-.59375.609375-.59375.609375-1.453125 0-.90625-.625-1.515625-.625-.625-1.5625-.625-.9375 0-1.5625.609375-.609375.59375-.609375 1.4375zm-.53125 6.15625q0 .703125.328125 1.359375.34375.65625 1 1.015625.65625.359375 1.40625.359375 1.171875 0 1.9375-.75.765625-.75.765625-1.921875 0-1.1875-.796875-1.953125-.78125-.78125-1.953125-.78125-1.15625 0-1.921875.765625-.765625.765625-.765625 1.90625zm8.719482-2.734375q0-2.359375.484375-3.796875.484375-1.453125 1.4375-2.234375.96875-.78125 2.421875-.78125 1.078125 0 1.890625.4375.8125.421875 1.328125 1.25.53125.8125.828125 1.984375.3125 1.15625.3125 3.140625 0 2.359375-.484375 3.8125-.484375 1.4375-1.453125 2.234375-.953125.78125-2.421875.78125-1.921875 0-3.03125-1.390625-1.3125-1.671875-1.3125-5.4375zm1.671875 0q0 3.296875.765625 4.390625.78125 1.078125 1.90625 1.078125 1.140625 0 1.90625-1.09375.765625-1.09375.765625-4.375 0-3.296875-.765625-4.375-.765625-1.078125-1.921875-1.078125-1.125 0-1.796875.953125-.859375 1.21875-.859375 4.5zm11.219452-.640625q-1.015625-.375-1.515625-1.0625-.484375-.703125-.484375-1.671875 0-1.453125 1.046875-2.4375 1.046875-1 2.78125-1 1.75 0 2.8125 1.015625 1.078125 1.015625 1.078125 2.46875 0 .9375-.5 1.625-.484375.6875-1.46875 1.0625 1.21875.390625 1.859375 1.28125.65625.890625.65625 2.140625 0 1.703125-1.21875 2.875-1.21875 1.171875-3.1875 1.171875-1.984375 0-3.203125-1.171875-1.203125-1.171875-1.203125-2.921875 0-1.3125.65625-2.1875.671875-.875 1.890625-1.1875zm-.328125-2.78125q0 .9375.609375 1.546875.609375.59375 1.59375.59375.9375 0 1.546875-.59375.609375-.59375.609375-1.453125 0-.90625-.625-1.515625-.625-.625-1.5625-.625-.9375 0-1.5625.609375-.609375.59375-.609375 1.4375zm-.53125 6.15625q0 .703125.328125 1.359375.34375.65625 1 1.015625.65625.359375 1.40625.359375 1.171875 0 1.9375-.75.765625-.75.765625-1.921875 0-1.1875-.796875-1.953125-.78125-.78125-1.953125-.78125-1.15625 0-1.921875.765625-.765625.765625-.765625 1.90625zm14.891357 3.859375h-1.640625v-10.453125q-.59375.5625-1.5625 1.140625-.953125.5625-1.71875.84375v-1.59375q1.375-.640625 2.40625-1.5625 1.03125-.921875 1.453125-1.78125h1.0625z" fill="#000"/><path d="m187.6063 313.7979 133.00787-130.01576" fill="none"/><path d="m187.6063 313.7979 124.426605-121.62755" fill-rule="evenodd" stroke="#cc4125" stroke-linecap="butt" stroke-linejoin="round" stroke-width="2"/><path d="m314.3421 194.53268 4.181244-8.706741-8.799591 3.9821014z" fill="#cc4125" fill-rule="evenodd" stroke="#cc4125" stroke-linecap="butt" stroke-width="2"/><path d="m323.10236 307.7979-2.4881897-124.000015" fill="none"/><path d="m323.10236 307.7979-2.2474365-112.002426" fill-rule="evenodd" stroke="#ffd966" stroke-linecap="butt" stroke-linejoin="round" stroke-width="2"/><path d="m324.1577 195.72922-3.4848938-9.008102-3.120697 9.14064z" fill="#ffd966" fill-rule="evenodd" stroke="#ffd966" stroke-linecap="butt" stroke-width="2"/><path d="m442.6063 307.7979-122.01575-124.000015" fill="none"/><path d="m442.6063 307.7979-113.59918-115.44658" fill-rule="evenodd" stroke="#93c47d" stroke-linecap="butt" stroke-linejoin="round" stroke-width="2"/><path d="m331.3618 190.03435-8.72052-4.152405 4.0112 8.786392z" fill="#93c47d" fill-rule="evenodd" stroke="#93c47d" stroke-linecap="butt" stroke-width="2"/><path d="m320.59842 147.79002-217.98425-31.968498" fill="none"/><path d="m320.59842 147.79002-206.11124-30.227264" fill-rule="evenodd" stroke="#cc4125" stroke-linecap="butt" stroke-linejoin="round" stroke-width="2"/><path d="m114.966515 114.29426-9.45948 1.9515152 8.500793 4.5854874z" fill="#cc4125" fill-rule="evenodd" stroke="#cc4125" stroke-linecap="butt" stroke-width="2"/><path d="m320.59842 147.79002 78.01575-31.968498" fill="none"/><path d="m320.59842 147.79002 66.911835-27.41845" fill-rule="evenodd" stroke="#ffd966" stroke-linecap="butt" stroke-linejoin="round" stroke-width="2"/><path d="m388.76282 123.42836 7.145874-6.4982147-9.651001.38464355z" fill="#ffd966" fill-rule="evenodd" stroke="#ffd966" stroke-linecap="butt" stroke-width="2"/><path d="m320.59842 147.79002-69.98425-31.968498" fill="none"/><path d="m320.59842 147.79002-59.069122-26.982513" fill-rule="evenodd" stroke="#93c47d" stroke-linecap="butt" stroke-linejoin="round" stroke-width="2"/><path d="m262.9019 117.8027-9.628235-.76633453 6.8830566 6.775955z" fill="#93c47d" fill-rule="evenodd" stroke="#93c47d" stroke-linecap="butt" stroke-width="2"/><path d="m236.59842 357.7979h173.00787v31.968506h-173.00787z" fill="none"/><path d="m249.36404 384.7179-3.53125-13.359375h1.8125l2.03125 8.765625q.328125 1.375.5625 2.71875.5-2.140625.59375-2.46875l2.546875-9.015625h2.125l1.921875 6.765625q.71875 2.515625 1.03125 4.71875.265625-1.265625.671875-2.890625l2.09375-8.59375h1.78125l-3.671875 13.359375h-1.703125l-2.8125-10.171875q-.359375-1.28125-.421875-1.5625-.203125.90625-.390625 1.5625l-2.828125 10.171875zm21.702423-3.109375 1.6875.203125q-.40625 1.484375-1.484375 2.3125-1.078125.8125-2.765625.8125-2.125 0-3.375-1.296875-1.234375-1.3125-1.234375-3.671875 0-2.453125 1.25-3.796875 1.265625-1.34375 3.265625-1.34375 1.9375 0 3.15625 1.328125 1.234375 1.3125 1.234375 3.703125 0 .15625 0 .4375h-7.21875q.09375 1.59375.90625 2.453125.8125.84375 2.015625.84375.90625 0 1.546875-.46875.640625-.484375 1.015625-1.515625zm-5.390625-2.65625h5.40625q-.109375-1.21875-.625-1.828125-.78125-.953125-2.03125-.953125-1.125 0-1.90625.765625-.765625.75-.84375 2.015625zm10.641327 5.765625h-1.515625v-13.359375h1.640625v4.765625q1.046875-1.296875 2.65625-1.296875.890625 0 1.6875.359375.796875.359375 1.3125 1.015625.515625.640625.796875 1.5625.296875.921875.296875 1.96875 0 2.484375-1.234375 3.84375-1.21875 1.359375-2.953125 1.359375-1.703125 0-2.6875-1.4375zm-.015625-4.90625q0 1.734375.484375 2.515625.765625 1.265625 2.09375 1.265625 1.078125 0 1.859375-.9375.78125-.9375.78125-2.78125 0-1.890625-.75-2.796875-.75-.90625-1.828125-.90625-1.0625 0-1.859375.9375-.78125.9375-.78125 2.703125zm8.500732.609375 1.65625-.140625q.125 1 .546875 1.640625.4375.640625 1.34375 1.046875.921875.390625 2.0625.390625 1 0 1.78125-.296875.78125-.296875 1.15625-.8125.375-.53125.375-1.15625 0-.625-.375-1.09375-.359375-.46875-1.1875-.796875-.546875-.203125-2.390625-.640625-1.828125-.453125-2.5625-.84375-.96875-.5-1.4375-1.234375-.46875-.75-.46875-1.671875 0-1 .578125-1.875.578125-.890625 1.671875-1.34375 1.109375-.453125 2.453125-.453125 1.484375 0 2.609375.484375 1.140625.46875 1.75 1.40625.609375.921875.65625 2.09375l-1.6875.125q-.140625-1.265625-.9375-1.90625-.78125-.65625-2.3125-.65625-1.609375 0-2.34375.59375-.734375.59375-.734375 1.421875 0 .71875.53125 1.171875.5.46875 2.65625.96875 2.15625.484375 2.953125.84375 1.171875.53125 1.71875 1.359375.5625.828125.5625 1.90625 0 1.0625-.609375 2.015625-.609375.9375-1.75 1.46875-1.140625.515625-2.578125.515625-1.8125 0-3.046875-.53125-1.21875-.53125-1.921875-1.59375-.6875-1.0625-.71875-2.40625zm12.224823-.546875q0-2.6875 1.484375-3.96875 1.25-1.078125 3.046875-1.078125 2 0 3.265625 1.3125 1.265625 1.296875 1.265625 3.609375 0 1.859375-.5625 2.9375-.5625 1.0625-1.640625 1.65625-1.0625.59375-2.328125.59375-2.03125 0-3.28125-1.296875-1.25-1.3125-1.25-3.765625zm1.6875 0q0 1.859375.796875 2.796875.8125.921875 2.046875.921875 1.21875 0 2.03125-.921875.8125-.9375.8125-2.84375 0-1.796875-.8125-2.71875-.8125-.921875-2.03125-.921875-1.234375 0-2.046875.921875-.796875.90625-.796875 2.765625zm15.610077 1.296875 1.609375.21875q-.265625 1.65625-1.359375 2.609375-1.078125.9375-2.671875.9375-1.984375 0-3.1875-1.296875-1.203125-1.296875-1.203125-3.71875 0-1.578125.515625-2.75.515625-1.171875 1.578125-1.75 1.0625-.59375 2.3125-.59375 1.578125 0 2.578125.796875 1 .796875 1.28125 2.265625l-1.59375.234375q-.234375-.96875-.8125-1.453125-.578125-.5-1.390625-.5-1.234375 0-2.015625.890625-.78125.890625-.78125 2.8125 0 1.953125.75 2.84375.75.875 1.953125.875.96875 0 1.609375-.59375.65625-.59375.828125-1.828125zm3.015625 3.546875v-13.359375h1.640625v7.625l3.890625-3.9375h2.109375l-3.6875 3.59375 4.0625 6.078125h-2.015625l-3.203125-4.953125-1.15625 1.125v3.828125zm15.953125-3.109375 1.6875.203125q-.40625 1.484375-1.484375 2.3125-1.078125.8125-2.765625.8125-2.125 0-3.375-1.296875-1.234375-1.3125-1.234375-3.671875 0-2.453125 1.25-3.796875 1.265625-1.34375 3.265625-1.34375 1.9375 0 3.15625 1.328125 1.234375 1.3125 1.234375 3.703125 0 .15625 0 .4375h-7.21875q.09375 1.59375.90625 2.453125.8125.84375 2.015625.84375.90625 0 1.546875-.46875.640625-.484375 1.015625-1.515625zm-5.390625-2.65625h5.40625q-.109375-1.21875-.625-1.828125-.78125-.953125-2.03125-.953125-1.125 0-1.90625.765625-.765625.75-.84375 2.015625zm12.719482 4.296875.234375 1.453125q-.6875.140625-1.234375.140625-.890625 0-1.390625-.28125-.484375-.28125-.6875-.734375-.203125-.46875-.203125-1.9375v-5.578125h-1.203125v-1.265625h1.203125v-2.390625l1.625-.984375v3.375h1.65625v1.265625h-1.65625v5.671875q0 .6875.078125.890625.09375.203125.28125.328125.203125.109375.578125.109375.265625 0 .71875-.0625zm13.100983-2.078125 1.609375.21875q-.265625 1.65625-1.359375 2.609375-1.078125.9375-2.671875.9375-1.984375 0-3.1875-1.296875-1.203125-1.296875-1.203125-3.71875 0-1.578125.515625-2.75.515625-1.171875 1.578125-1.75 1.0625-.59375 2.3125-.59375 1.578125 0 2.578125.796875 1 .796875 1.28125 2.265625l-1.59375.234375q-.234375-.96875-.8125-1.453125-.578125-.5-1.390625-.5-1.234375 0-2.015625.890625-.78125.890625-.78125 2.8125 0 1.953125.75 2.84375.75.875 1.953125.875.96875 0 1.609375-.59375.65625-.59375.828125-1.828125zm2.96875 3.546875v-13.359375h1.640625v13.359375zm4.191681-11.46875v-1.890625h1.640625v1.890625zm0 11.46875v-9.671875h1.640625v9.671875zm10.769836-3.109375 1.6875.203125q-.40625 1.484375-1.484375 2.3125-1.078125.8125-2.765625.8125-2.125 0-3.375-1.296875-1.234375-1.3125-1.234375-3.671875 0-2.453125 1.25-3.796875 1.265625-1.34375 3.265625-1.34375 1.9375 0 3.15625 1.328125 1.234375 1.3125 1.234375 3.703125 0 .15625 0 .4375h-7.21875q.09375 1.59375.90625 2.453125.8125.84375 2.015625.84375.90625 0 1.546875-.46875.640625-.484375 1.015625-1.515625zm-5.390625-2.65625h5.40625q-.109375-1.21875-.625-1.828125-.78125-.953125-2.03125-.953125-1.125 0-1.90625.765625-.765625.75-.84375 2.015625zm9.141327 5.765625v-9.671875h1.46875v1.375q1.0625-1.59375 3.078125-1.59375.875 0 1.609375.3125.734375.3125 1.09375.828125.375.5.515625 1.203125.09375.453125.09375 1.59375v5.953125h-1.640625v-5.890625q0-1-.203125-1.484375-.1875-.5-.671875-.796875-.484375-.296875-1.140625-.296875-1.046875 0-1.8125.671875-.75.65625-.75 2.515625v5.28125zm13.953857-1.46875.234375 1.453125q-.6875.140625-1.234375.140625-.890625 0-1.390625-.28125-.484375-.28125-.6875-.734375-.203125-.46875-.203125-1.9375v-5.578125h-1.203125v-1.265625h1.203125v-2.390625l1.625-.984375v3.375h1.65625v1.265625h-1.65625v5.671875q0 .6875.078125.890625.09375.203125.28125.328125.203125.109375.578125.109375.265625 0 .71875-.0625zm.9489136-1.421875 1.625-.25q.125.96875.75 1.5.625.515625 1.75.515625 1.125 0 1.671875-.453125.546875-.46875.546875-1.09375 0-.546875-.484375-.875-.328125-.21875-1.671875-.546875-1.8125-.46875-2.515625-.796875-.6875-.328125-1.046875-.90625-.359375-.59375-.359375-1.3125 0-.640625.296875-1.1875.296875-.5625.8125-.921875.375-.28125 1.03125-.46875.671875-.203125 1.421875-.203125 1.140625 0 2 .328125.859375.328125 1.265625.890625.421875.5625.578125 1.5l-1.609375.21875q-.109375-.75-.640625-1.171875-.515625-.421875-1.46875-.421875-1.140625 0-1.625.375-.46875.375-.46875.875 0 .3125.1875.578125.203125.265625.640625.4375.234375.09375 1.4375.421875 1.75.453125 2.4375.75.6875.296875 1.078125.859375.390625.5625.390625 1.40625 0 .828125-.484375 1.546875-.46875.71875-1.375 1.125-.90625.390625-2.046875.390625-1.875 0-2.875-.78125-.984375-.78125-1.25-2.328125z" fill="#000"/><path d="m395.6063 222.78609h132.00003v46.015762h-132.00003z" fill="none"/><path d="m415.57504 245.01859 1.765625.453125q-.5625 2.171875-2 3.328125-1.4375 1.140625-3.53125 1.140625-2.15625 0-3.515625-.875-1.34375-.890625-2.0625-2.546875-.703125-1.671875-.703125-3.59375 0-2.078125.796875-3.625.796875-1.5625 2.265625-2.359375 1.484375-.8125 3.25-.8125 2 0 3.359375 1.015625 1.375 1.015625 1.90625 2.875l-1.734375.40625q-.46875-1.453125-1.359375-2.109375-.875-.671875-2.203125-.671875-1.546875 0-2.578125.734375-1.03125.734375-1.453125 1.984375-.421875 1.234375-.421875 2.5625 0 1.703125.5 2.96875.5 1.265625 1.546875 1.90625 1.046875.625 2.265625.625 1.484375 0 2.515625-.859375 1.03125-.859375 1.390625-2.546875zm3.1292114-.15625q0-2.6875 1.484375-3.96875 1.25-1.078125 3.046875-1.078125 2 0 3.265625 1.3125 1.265625 1.296875 1.265625 3.609375 0 1.859375-.5625 2.9375-.5625 1.0625-1.640625 1.65625-1.0625.59375-2.328125.59375-2.03125 0-3.28125-1.296875-1.25-1.3125-1.25-3.765625zm1.6875 0q0 1.859375.796875 2.796875.8125.921875 2.046875.921875 1.21875 0 2.03125-.921875.8125-.9375.8125-2.84375 0-1.796875-.8125-2.71875-.8125-.921875-2.03125-.921875-1.234375 0-2.046875.921875-.796875.90625-.796875 2.765625zm9.297577 4.84375v-9.671875h1.46875v1.375q1.0625-1.59375 3.078125-1.59375.875 0 1.609375.3125.734375.3125 1.09375.828125.375.5.515625 1.203125.09375.453125.09375 1.59375v5.953125h-1.640625v-5.890625q0-1-.203125-1.484375-.1875-.5-.671875-.796875-.484375-.296875-1.140625-.296875-1.046875 0-1.8125.671875-.75.65625-.75 2.515625v5.28125zm10.375732 0v-9.671875h1.46875v1.375q1.0625-1.59375 3.078125-1.59375.875 0 1.609375.3125.734375.3125 1.09375.828125.375.5.515625 1.203125.09375.453125.09375 1.59375v5.953125h-1.640625v-5.890625q0-1-.203125-1.484375-.1875-.5-.671875-.796875-.484375-.296875-1.140625-.296875-1.046875 0-1.8125.671875-.75.65625-.75 2.515625v5.28125zm17.000702-3.109375 1.6875.203125q-.40625 1.484375-1.484375 2.3125-1.078125.8125-2.765625.8125-2.125 0-3.375-1.296875-1.234375-1.3125-1.234375-3.671875 0-2.453125 1.25-3.796875 1.265625-1.34375 3.265625-1.34375 1.9375 0 3.15625 1.328125 1.234375 1.3125 1.234375 3.703125 0 .15625 0 .4375h-7.21875q.09375 1.59375.90625 2.453125.8125.84375 2.015625.84375.90625 0 1.546875-.46875.640625-.484375 1.015625-1.515625zm-5.390625-2.65625h5.40625q-.109375-1.21875-.625-1.828125-.78125-.953125-2.03125-.953125-1.125 0-1.90625.765625-.765625.75-.84375 2.015625zm15.453857 2.21875 1.609375.21875q-.265625 1.65625-1.359375 2.609375-1.078125.9375-2.671875.9375-1.984375 0-3.1875-1.296875-1.203125-1.296875-1.203125-3.71875 0-1.578125.515625-2.75.515625-1.171875 1.578125-1.75 1.0625-.59375 2.3125-.59375 1.578125 0 2.578125.796875 1 .796875 1.28125 2.265625l-1.59375.234375q-.234375-.96875-.8125-1.453125-.578125-.5-1.390625-.5-1.234375 0-2.015625.890625-.78125.890625-.78125 2.8125 0 1.953125.75 2.84375.75.875 1.953125.875.96875 0 1.609375-.59375.65625-.59375.828125-1.828125zm6.59375 2.078125.234375 1.453125q-.6875.140625-1.234375.140625-.890625 0-1.390625-.28125-.484375-.28125-.6875-.734375-.203125-.46875-.203125-1.9375v-5.578125h-1.203125v-1.265625h1.203125v-2.390625l1.625-.984375v3.375h1.65625v1.265625h-1.65625v5.671875q0 .6875.078125.890625.09375.203125.28125.328125.203125.109375.578125.109375.265625 0 .71875-.0625zm1.6051636-10v-1.890625h1.640625v1.890625zm0 11.46875v-9.671875h1.640625v9.671875zm3.5354614-4.84375q0-2.6875 1.484375-3.96875 1.25-1.078125 3.046875-1.078125 2 0 3.265625 1.3125 1.265625 1.296875 1.265625 3.609375 0 1.859375-.5625 2.9375-.5625 1.0625-1.640625 1.65625-1.0625.59375-2.328125.59375-2.03125 0-3.28125-1.296875-1.25-1.3125-1.25-3.765625zm1.6875 0q0 1.859375.796875 2.796875.8125.921875 2.046875.921875 1.21875 0 2.03125-.921875.8125-.9375.8125-2.84375 0-1.796875-.8125-2.71875-.8125-.921875-2.03125-.921875-1.234375 0-2.046875.921875-.796875.90625-.796875 2.765625zm9.297577 4.84375v-9.671875h1.46875v1.375q1.0625-1.59375 3.078125-1.59375.875 0 1.609375.3125.734375.3125 1.09375.828125.375.5.515625 1.203125.09375.453125.09375 1.59375v5.953125h-1.640625v-5.890625q0-1-.203125-1.484375-.1875-.5-.671875-.796875-.484375-.296875-1.140625-.296875-1.046875 0-1.8125.671875-.75.65625-.75 2.515625v5.28125zm9.719482-2.890625 1.625-.25q.125.96875.75 1.5.625.515625 1.75.515625 1.125 0 1.671875-.453125.546875-.46875.546875-1.09375 0-.546875-.484375-.875-.328125-.21875-1.671875-.546875-1.8125-.46875-2.515625-.796875-.6875-.328125-1.046875-.90625-.359375-.59375-.359375-1.3125 0-.640625.296875-1.1875.296875-.5625.8125-.921875.375-.28125 1.03125-.46875.671875-.203125 1.421875-.203125 1.140625 0 2 .328125.859375.328125 1.265625.890625.421875.5625.578125 1.5l-1.609375.21875q-.109375-.75-.640625-1.171875-.515625-.421875-1.46875-.421875-1.140625 0-1.625.375-.46875.375-.46875.875 0 .3125.1875.578125.203125.265625.640625.4375.234375.09375 1.4375.421875 1.75.453125 2.4375.75.6875.296875 1.078125.859375.390625.5625.390625 1.40625 0 .828125-.484375 1.546875-.46875.71875-1.375 1.125-.90625.390625-2.046875.390625-1.875 0-2.875-.78125-.984375-.78125-1.25-2.328125z" fill="#000"/><path d="m336.6063 69.7979h124v46.015755h-124z" fill="#cfe2f3" fill-rule="evenodd"/><path d="m336.6063 69.7979h124v46.015755h-124z" fill-rule="evenodd" stroke="#000" stroke-linecap="butt" stroke-linejoin="round"/><path d="m346.18442 93.82727 1.625-.25q.125.96875.75 1.5.625.515625 1.75.515625 1.125 0 1.671875-.453125.546875-.46875.546875-1.09375 0-.546875-.484375-.875-.328125-.21875-1.671875-.546875-1.8125-.46875-2.515625-.796875-.6875-.328125-1.046875-.90625-.359375-.59375-.359375-1.3125 0-.640625.296875-1.1875.296875-.5625.8125-.921875.375-.28125 1.03125-.46875.671875-.203125 1.421875-.203125 1.140625 0 2 .328125.859375.328125 1.265625.890625.421875.5625.578125 1.5l-1.609375.21875q-.109375-.75-.640625-1.171875-.515625-.421875-1.46875-.421875-1.140625 0-1.625.375-.46875.375-.46875.875 0 .3125.1875.578125.203125.265625.640625.4375.234375.09375 1.4375.421875 1.75.453125 2.4375.75.6875.296875 1.078125.859375.390625.5625.390625 1.40625 0 .828125-.484375 1.546875-.46875.71875-1.375 1.125-.90625.390625-2.046875.390625-1.875 0-2.875-.78125-.984375-.78125-1.25-2.328125zm9.375-1.953125q0-2.6875 1.484375-3.96875 1.25-1.078125 3.046875-1.078125 2 0 3.265625 1.3125 1.265625 1.296875 1.265625 3.609375 0 1.859375-.5625 2.9375-.5625 1.0625-1.640625 1.65625-1.0625.59375-2.328125.59375-2.03125 0-3.28125-1.296875-1.25-1.3125-1.25-3.765625zm1.6875 0q0 1.859375.796875 2.796875.8125.921875 2.046875.921875 1.21875 0 2.03125-.921875.8125-.9375.8125-2.84375 0-1.796875-.8125-2.71875-.8125-.921875-2.03125-.921875-1.234375 0-2.046875.921875-.796875.90625-.796875 2.765625zm15.610107 1.296875 1.609375.21875q-.265625 1.65625-1.359375 2.609375-1.078125.9375-2.671875.9375-1.984375 0-3.1875-1.296875-1.203125-1.296875-1.203125-3.71875 0-1.578125.515625-2.75.515625-1.171875 1.578125-1.75 1.0625-.59375 2.3125-.59375 1.578125 0 2.578125.796875 1 .796875 1.28125 2.265625l-1.59375.234375q-.234375-.96875-.8125-1.453125-.578125-.5-1.390625-.5-1.234375 0-2.015625.890625-.78125.890625-.78125 2.8125 0 1.953125.75 2.84375.75.875 1.953125.875.96875 0 1.609375-.59375.65625-.59375.828125-1.828125zm3.015625 3.546875v-13.359375h1.640625v7.625l3.890625-3.9375h2.109375l-3.6875 3.59375 4.0625 6.078125h-2.015625l-3.203125-4.953125-1.15625 1.125v3.828125zm15.953125-3.109375 1.6875.203125q-.40625 1.484375-1.484375 2.3125-1.078125.8125-2.765625.8125-2.125 0-3.375-1.296875-1.234375-1.3125-1.234375-3.671875 0-2.453125 1.25-3.796875 1.265625-1.34375 3.265625-1.34375 1.9375 0 3.15625 1.328125 1.234375 1.3125 1.234375 3.703125 0 .15625 0 .4375h-7.21875q.09375 1.59375.90625 2.453125.8125.84375 2.015625.84375.90625 0 1.546875-.46875.640625-.484375 1.015625-1.515625zm-5.390625-2.65625h5.40625q-.109375-1.21875-.625-1.828125-.78125-.953125-2.03125-.953125-1.125 0-1.90625.765625-.765625.75-.84375 2.015625zm12.719452 4.296875.234375 1.453125q-.6875.140625-1.234375.140625-.890625 0-1.390625-.28125-.484375-.28125-.6875-.734375-.203125-.46875-.203125-1.9375v-5.578125h-1.203125v-1.265625h1.203125v-2.390625l1.625-.984375v3.375h1.65625v1.265625h-1.65625v5.671875q0 .6875.078125.890625.09375.203125.28125.328125.203125.109375.578125.109375.265625 0 .71875-.0625zm2.058319-6.34375v-1.859375h1.859375v1.859375zm0 7.8125v-1.875h1.859375v1.875zm6.7926636-7.234375q-1.015625-.375-1.515625-1.0625-.484375-.703125-.484375-1.671875 0-1.453125 1.046875-2.4375 1.046875-1 2.78125-1 1.75 0 2.8125 1.015625 1.078125 1.015625 1.078125 2.46875 0 .9375-.5 1.625-.484375.6875-1.46875 1.0625 1.21875.390625 1.859375 1.28125.65625.890625.65625 2.140625 0 1.703125-1.21875 2.875-1.21875 1.171875-3.1875 1.171875-1.984375 0-3.203125-1.171875-1.203125-1.171875-1.203125-2.921875 0-1.3125.65625-2.1875.671875-.875 1.890625-1.1875zm-.328125-2.78125q0 .9375.609375 1.546875.609375.59375 1.59375.59375.9375 0 1.546875-.59375.609375-.59375.609375-1.453125 0-.90625-.625-1.515625-.625-.625-1.5625-.625-.9375 0-1.5625.609375-.609375.59375-.609375 1.4375zm-.53125 6.15625q0 .703125.328125 1.359375.34375.65625 1 1.015625.65625.359375 1.40625.359375 1.171875 0 1.9375-.75.765625-.75.765625-1.921875 0-1.1875-.796875-1.953125-.78125-.78125-1.953125-.78125-1.15625 0-1.921875.765625-.765625.765625-.765625 1.90625zm8.719482-2.734375q0-2.359375.484375-3.796875.484375-1.453125 1.4375-2.234375.96875-.78125 2.421875-.78125 1.078125 0 1.890625.4375.8125.421875 1.328125 1.25.53125.8125.828125 1.984375.3125 1.15625.3125 3.140625 0 2.359375-.484375 3.8125-.484375 1.4375-1.453125 2.234375-.953125.78125-2.421875.78125-1.921875 0-3.03125-1.390625-1.3125-1.671875-1.3125-5.4375zm1.671875 0q0 3.296875.765625 4.390625.78125 1.078125 1.90625 1.078125 1.140625 0 1.90625-1.09375.765625-1.09375.765625-4.375 0-3.296875-.765625-4.375-.765625-1.078125-1.921875-1.078125-1.125 0-1.796875.953125-.859375 1.21875-.859375 4.5zm11.219452-.640625q-1.015625-.375-1.515625-1.0625-.484375-.703125-.484375-1.671875 0-1.453125 1.046875-2.4375 1.046875-1 2.78125-1 1.75 0 2.8125 1.015625 1.078125 1.015625 1.078125 2.46875 0 .9375-.5 1.625-.484375.6875-1.46875 1.0625 1.21875.390625 1.859375 1.28125.65625.890625.65625 2.140625 0 1.703125-1.21875 2.875-1.21875 1.171875-3.1875 1.171875-1.984375 0-3.203125-1.171875-1.203125-1.171875-1.203125-2.921875 0-1.3125.65625-2.1875.671875-.875 1.890625-1.1875zm-.328125-2.78125q0 .9375.609375 1.546875.609375.59375 1.59375.59375.9375 0 1.546875-.59375.609375-.59375.609375-1.453125 0-.90625-.625-1.515625-.625-.625-1.5625-.625-.9375 0-1.5625.609375-.609375.59375-.609375 1.4375zm-.53125 6.15625q0 .703125.328125 1.359375.34375.65625 1 1.015625.65625.359375 1.40625.359375 1.171875 0 1.9375-.75.765625-.75.765625-1.921875 0-1.1875-.796875-1.953125-.78125-.78125-1.953125-.78125-1.15625 0-1.921875.765625-.765625.765625-.765625 1.90625zm17.328857 2.28125v1.578125h-8.828125q-.015625-.59375.1875-1.140625.34375-.90625 1.078125-1.78125.75-.875 2.15625-2.015625 2.171875-1.78125 2.9375-2.828125.765625-1.046875.765625-1.96875 0-.984375-.703125-1.640625-.6875-.671875-1.8125-.671875-1.1875 0-1.90625.71875-.703125.703125-.703125 1.953125l-1.6875-.171875q.171875-1.890625 1.296875-2.875 1.140625-.984375 3.03125-.984375 1.921875 0 3.046875 1.0625 1.125 1.0625 1.125 2.640625 0 .796875-.328125 1.578125-.328125.78125-1.09375 1.640625-.75.84375-2.53125 2.34375-1.46875 1.234375-1.890625 1.6875-.421875.4375-.6875.875z" fill="#000"/><path d="m484.6063 69.7979h124.00003v46.015755h-124.00003z" fill="#cfe2f3" fill-rule="evenodd"/><path d="m484.6063 69.7979h124.00003v46.015755h-124.00003z" fill-rule="evenodd" stroke="#000" stroke-linecap="butt" stroke-linejoin="round"/><path d="m494.18442 93.82727 1.625-.25q.125.96875.75 1.5.625.515625 1.75.515625 1.125 0 1.671875-.453125.546875-.46875.546875-1.09375 0-.546875-.484375-.875-.328125-.21875-1.671875-.546875-1.8125-.46875-2.515625-.796875-.6875-.328125-1.046875-.90625-.359375-.59375-.359375-1.3125 0-.640625.296875-1.1875.296875-.5625.8125-.921875.375-.28125 1.03125-.46875.671875-.203125 1.421875-.203125 1.140625 0 2 .328125.859375.328125 1.265625.890625.421875.5625.578125 1.5l-1.609375.21875q-.109375-.75-.640625-1.171875-.515625-.421875-1.46875-.421875-1.140625 0-1.625.375-.46875.375-.46875.875 0 .3125.1875.578125.203125.265625.640625.4375.234375.09375 1.4375.421875 1.75.453125 2.4375.75.6875.296875 1.078125.859375.390625.5625.390625 1.40625 0 .828125-.484375 1.546875-.46875.71875-1.375 1.125-.90625.390625-2.046875.390625-1.875 0-2.875-.78125-.984375-.78125-1.25-2.328125zm9.375-1.953125q0-2.6875 1.484375-3.96875 1.25-1.078125 3.046875-1.078125 2 0 3.265625 1.3125 1.2656555 1.296875 1.2656555 3.609375 0 1.859375-.5625 2.9375-.5625305 1.0625-1.6406555 1.65625-1.0625.59375-2.328125.59375-2.03125 0-3.28125-1.296875-1.25-1.3125-1.25-3.765625zm1.6875 0q0 1.859375.796875 2.796875.8125.921875 2.046875.921875 1.21875 0 2.03125-.921875.8125-.9375.8125-2.84375 0-1.796875-.8125-2.71875-.8125-.921875-2.03125-.921875-1.234375 0-2.046875.921875-.796875.90625-.796875 2.765625zm15.610077 1.296875 1.609375.21875q-.265625 1.65625-1.359375 2.609375-1.078125.9375-2.671875.9375-1.984375 0-3.1875-1.296875-1.203125-1.296875-1.203125-3.71875 0-1.578125.515625-2.75.515625-1.171875 1.578125-1.75 1.0625-.59375 2.3125-.59375 1.578125 0 2.578125.796875 1 .796875 1.28125 2.265625l-1.59375.234375q-.234375-.96875-.8125-1.453125-.578125-.5-1.390625-.5-1.234375 0-2.015625.890625-.78125.890625-.78125 2.8125 0 1.953125.75 2.84375.75.875 1.953125.875.96875 0 1.609375-.59375.65625-.59375.828125-1.828125zm3.015625 3.546875v-13.359375h1.640625v7.625l3.890625-3.9375h2.109375l-3.6875 3.59375 4.0625 6.078125h-2.015625l-3.203125-4.953125-1.15625 1.125v3.828125zm15.953125-3.109375 1.6875.203125q-.40625 1.484375-1.484375 2.3125-1.078125.8125-2.765625.8125-2.125 0-3.375-1.296875-1.234375-1.3125-1.234375-3.671875 0-2.453125 1.25-3.796875 1.265625-1.34375 3.265625-1.34375 1.9375 0 3.15625 1.328125 1.234375 1.3125 1.234375 3.703125 0 .15625 0 .4375h-7.21875q.09375 1.59375.90625 2.453125.8125.84375 2.015625.84375.90625 0 1.546875-.46875.640625-.484375 1.015625-1.515625zm-5.390625-2.65625h5.40625q-.109375-1.21875-.625-1.828125-.78125-.953125-2.03125-.953125-1.125 0-1.90625.765625-.765625.75-.84375 2.015625zm12.719482 4.296875.234375 1.453125q-.6875.140625-1.234375.140625-.890625 0-1.390625-.28125-.484375-.28125-.6875-.734375-.203125-.46875-.203125-1.9375v-5.578125h-1.203125v-1.265625h1.203125v-2.390625l1.625-.984375v3.375h1.65625v1.265625h-1.65625v5.671875q0 .6875.078125.890625.09375.203125.28125.328125.203125.109375.578125.109375.265625 0 .71875-.0625zm2.0582886-6.34375v-1.859375h1.859375v1.859375zm0 7.8125v-1.875h1.859375v1.875zm6.7927246-7.234375q-1.015625-.375-1.515625-1.0625-.484375-.703125-.484375-1.671875 0-1.453125 1.046875-2.4375 1.046875-1 2.78125-1 1.75 0 2.8125 1.015625 1.078125 1.015625 1.078125 2.46875 0 .9375-.5 1.625-.484375.6875-1.46875 1.0625 1.21875.390625 1.859375 1.28125.65625.890625.65625 2.140625 0 1.703125-1.21875 2.875-1.21875 1.171875-3.1875 1.171875-1.984375 0-3.203125-1.171875-1.203125-1.171875-1.203125-2.921875 0-1.3125.65625-2.1875.671875-.875 1.890625-1.1875zm-.328125-2.78125q0 .9375.609375 1.546875.609375.59375 1.59375.59375.9375 0 1.546875-.59375.609375-.59375.609375-1.453125 0-.90625-.625-1.515625-.625-.625-1.5625-.625-.9375 0-1.5625.609375-.609375.59375-.609375 1.4375zm-.53125 6.15625q0 .703125.328125 1.359375.34375.65625 1 1.015625.65625.359375 1.40625.359375 1.171875 0 1.9375-.75.765625-.75.765625-1.921875 0-1.1875-.796875-1.953125-.78125-.78125-1.953125-.78125-1.15625 0-1.921875.765625-.765625.765625-.765625 1.90625zm8.719421-2.734375q0-2.359375.484375-3.796875.484375-1.453125 1.4375-2.234375.96875-.78125 2.421875-.78125 1.078125 0 1.890625.4375.8125.421875 1.328125 1.25.53125.8125.828125 1.984375.3125 1.15625.3125 3.140625 0 2.359375-.484375 3.8125-.484375 1.4375-1.453125 2.234375-.953125.78125-2.421875.78125-1.921875 0-3.03125-1.390625-1.3125-1.671875-1.3125-5.4375zm1.671875 0q0 3.296875.765625 4.390625.78125 1.078125 1.90625 1.078125 1.140625 0 1.90625-1.09375.765625-1.09375.765625-4.375 0-3.296875-.765625-4.375-.765625-1.078125-1.921875-1.078125-1.125 0-1.796875.953125-.859375 1.21875-.859375 4.5zm11.219482-.640625q-1.015625-.375-1.515625-1.0625-.484375-.703125-.484375-1.671875 0-1.453125 1.046875-2.4375 1.046875-1 2.78125-1 1.75 0 2.8125 1.015625 1.078125 1.015625 1.078125 2.46875 0 .9375-.5 1.625-.484375.6875-1.46875 1.0625 1.21875.390625 1.859375 1.28125.65625.890625.65625 2.140625 0 1.703125-1.21875 2.875-1.21875 1.171875-3.1875 1.171875-1.984375 0-3.203125-1.171875-1.203125-1.171875-1.203125-2.921875 0-1.3125.65625-2.1875.671875-.875 1.890625-1.1875zm-.328125-2.78125q0 .9375.609375 1.546875.609375.59375 1.59375.59375.9375 0 1.546875-.59375.609375-.59375.609375-1.453125 0-.90625-.625-1.515625-.625-.625-1.5625-.625-.9375 0-1.5625.609375-.609375.59375-.609375 1.4375zm-.53125 6.15625q0 .703125.328125 1.359375.34375.65625 1 1.015625.65625.359375 1.40625.359375 1.171875 0 1.9375-.75.765625-.75.765625-1.921875 0-1.1875-.796875-1.953125-.78125-.78125-1.953125-.78125-1.15625 0-1.921875.765625-.765625.765625-.765625 1.90625zm8.719482.328125 1.640625-.21875q.28125 1.40625.953125 2.015625.6875.609375 1.65625.609375 1.15625 0 1.953125-.796875.796875-.796875.796875-1.984375 0-1.125-.734375-1.859375-.734375-.734375-1.875-.734375-.46875 0-1.15625.171875l.1875-1.4375q.15625.015625.265625.015625 1.046875 0 1.875-.546875.84375-.546875.84375-1.671875 0-.90625-.609375-1.5-.609375-.59375-1.578125-.59375-.953125 0-1.59375.609375-.640625.59375-.8125 1.796875l-1.640625-.296875q.296875-1.640625 1.359375-2.546875 1.0625-.90625 2.65625-.90625 1.09375 0 2 .46875.921875.46875 1.40625 1.28125.5.8125.5 1.71875 0 .859375-.46875 1.578125-.46875.703125-1.375 1.125 1.1875.28125 1.84375 1.140625.65625.859375.65625 2.15625 0 1.734375-1.28125 2.953125-1.265625 1.21875-3.21875 1.21875-1.765625 0-2.921875-1.046875-1.15625-1.046875-1.328125-2.71875z" fill="#000"/><path d="m15.606299 15.7979h248.97638v36h-248.97638z" fill="none"/><path d="m28.371923 42.7179-3.53125-13.359375h1.8125l2.03125 8.765625q.328125 1.375.5625 2.71875.5-2.140625.59375-2.46875l2.546877-9.015625h2.125l1.921875 6.765625q.71875 2.515625 1.03125 4.71875.265625-1.265625.671875-2.890625l2.09375-8.59375h1.78125l-3.671875 13.359375h-1.703125l-2.8125-10.171875q-.359375-1.28125-.421875-1.5625-.203125.90625-.390625 1.5625l-2.828127 10.171875zm21.70241-3.109375 1.6875.203125q-.40625 1.484375-1.484375 2.3125-1.078125.8125-2.765625.8125-2.125 0-3.375-1.296875-1.234375-1.3125-1.234375-3.671875 0-2.453125 1.25-3.796875 1.265625-1.34375 3.265625-1.34375 1.9375 0 3.15625 1.328125 1.234375 1.3125 1.234375 3.703125 0 .15625 0 .4375h-7.21875q.09375 1.59375.90625 2.453125.8125.84375 2.015625.84375.90625 0 1.546875-.46875.640625-.484375 1.015625-1.515625zm-5.390625-2.65625h5.40625q-.109375-1.21875-.625-1.828125-.78125-.953125-2.03125-.953125-1.125 0-1.90625.765625-.765625.75-.84375 2.015625zm10.641342 5.765625h-1.515625v-13.359375h1.640625v4.765625q1.046875-1.296875 2.65625-1.296875.890625 0 1.6875.359375.796875.359375 1.3125 1.015625.515625.640625.796875 1.5625.296875.921875.296875 1.96875 0 2.484375-1.234375 3.84375-1.21875 1.359375-2.953125 1.359375-1.703125 0-2.6875-1.4375zm-.015625-4.90625q0 1.734375.484375 2.515625.765625 1.265625 2.09375 1.265625 1.078125 0 1.859375-.9375.78125-.9375.78125-2.78125 0-1.890625-.75-2.796875-.75-.90625-1.828125-.90625-1.0625 0-1.859375.9375-.78125.9375-.78125 2.703125zm8.500717.609375 1.65625-.140625q.125 1 .546875 1.640625.4375.640625 1.34375 1.046875.921875.390625 2.0625.390625 1 0 1.78125-.296875.78125-.296875 1.15625-.8125.375-.53125.375-1.15625 0-.625-.375-1.09375-.359375-.46875-1.1875-.796875-.546875-.203125-2.390625-.640625-1.828125-.453125-2.5625-.84375-.96875-.5-1.4375-1.234375-.46875-.75-.46875-1.671875 0-1 .578125-1.875.578125-.890625 1.671875-1.34375 1.109375-.453125 2.453125-.453125 1.484375 0 2.609375.484375 1.140625.46875 1.75 1.40625.609375.921875.65625 2.09375l-1.6875.125q-.140625-1.265625-.9375-1.90625-.78125-.65625-2.3125-.65625-1.609375 0-2.34375.59375-.734375.59375-.734375 1.421875 0 .71875.53125 1.171875.5.46875 2.65625.96875 2.15625.484375 2.953125.84375 1.171875.53125 1.71875 1.359375.5625.828125.5625 1.90625 0 1.0625-.609375 2.015625-.609375.9375-1.75 1.46875-1.140625.515625-2.578125.515625-1.8125 0-3.046875-.53125-1.21875-.53125-1.921875-1.59375-.6875-1.0625-.71875-2.40625zm12.224823-.546875q0-2.6875 1.484375-3.96875 1.25-1.078125 3.046875-1.078125 2 0 3.265625 1.3125 1.265625 1.296875 1.265625 3.609375 0 1.859375-.5625 2.9375-.5625 1.0625-1.640625 1.65625-1.0625.59375-2.328125.59375-2.03125 0-3.28125-1.296875-1.25-1.3125-1.25-3.765625zm1.6875 0q0 1.859375.796875 2.796875.8125.921875 2.046875.921875 1.21875 0 2.03125-.921875.8125-.9375.8125-2.84375 0-1.796875-.8125-2.71875-.8125-.921875-2.03125-.921875-1.234375 0-2.046875.921875-.796875.90625-.796875 2.765625zm15.610092 1.296875 1.609375.21875q-.265625 1.65625-1.359375 2.609375-1.078125.9375-2.671875.9375-1.984375 0-3.1875-1.296875-1.203125-1.296875-1.203125-3.71875 0-1.578125.515625-2.75.515625-1.171875 1.578125-1.75 1.0625-.59375 2.3125-.59375 1.578125 0 2.578125.796875 1 .796875 1.28125 2.265625l-1.59375.234375q-.234375-.96875-.8125-1.453125-.578125-.5-1.390625-.5-1.234375 0-2.015625.890625-.78125.890625-.78125 2.8125 0 1.953125.75 2.84375.75.875 1.953125.875.96875 0 1.609375-.59375.65625-.59375.828125-1.828125zm3.015625 3.546875v-13.359375h1.640625v7.625l3.890625-3.9375h2.109375l-3.6875 3.59375 4.0625 6.078125h-2.015625l-3.203125-4.953125-1.15625 1.125v3.828125zm15.953125-3.109375 1.6875.203125q-.40625 1.484375-1.484375 2.3125-1.078125.8125-2.765625.8125-2.125 0-3.375-1.296875-1.234375-1.3125-1.234375-3.671875 0-2.453125 1.25-3.796875 1.265625-1.34375 3.265625-1.34375 1.9375 0 3.15625 1.328125 1.234375 1.3125 1.234375 3.703125 0 .15625 0 .4375h-7.21875q.09375 1.59375.90625 2.453125.8125.84375 2.015625.84375.90625 0 1.546875-.46875.640625-.484375 1.015625-1.515625zm-5.390625-2.65625h5.40625q-.109375-1.21875-.625-1.828125-.78125-.953125-2.03125-.953125-1.125 0-1.90625.765625-.765625.75-.84375 2.015625zm12.719467 4.296875.234375 1.453125q-.6875.140625-1.234375.140625-.890625 0-1.390625-.28125-.484375-.28125-.6875-.734375-.203125-.46875-.203125-1.9375v-5.578125h-1.203125v-1.265625h1.203125v-2.390625l1.625-.984375v3.375h1.65625v1.265625h-1.65625v5.671875q0 .6875.078125.890625.09375.203125.28125.328125.203125.109375.578125.109375.265625 0 .71875-.0625zm6.1322327-1.421875 1.625-.25q.125.96875.7499924 1.5.625.515625 1.75.515625 1.125 0 1.671875-.453125.546875-.46875.546875-1.09375 0-.546875-.484375-.875-.328125-.21875-1.671875-.546875-1.8125-.46875-2.5156174-.796875-.6875-.328125-1.046875-.90625-.359375-.59375-.359375-1.3125 0-.640625.296875-1.1875.296875-.5625.8125-.921875.375-.28125 1.0312424-.46875.671875-.203125 1.421875-.203125 1.140625 0 2 .328125.859375.328125 1.265625.890625.421875.5625.578125 1.5l-1.609375.21875q-.109375-.75-.640625-1.171875-.515625-.421875-1.46875-.421875-1.140625 0-1.625.375-.46874237.375-.46874237.875 0 .3125.1875.578125.20311737.265625.6406174.4375.234375.09375 1.4375.421875 1.75.453125 2.4375.75.6875.296875 1.078125.859375.390625.5625.390625 1.40625 0 .828125-.484375 1.546875-.46875.71875-1.375 1.125-.90625.390625-2.046875.390625-1.875 0-2.8749924-.78125-.984375-.78125-1.25-2.328125zm16.609367-.21875 1.6875.203125q-.40625 1.484375-1.484375 2.3125-1.078125.8125-2.765625.8125-2.125 0-3.375-1.296875-1.234375-1.3125-1.234375-3.671875 0-2.453125 1.25-3.796875 1.265625-1.34375 3.265625-1.34375 1.9375 0 3.15625 1.328125 1.234375 1.3125 1.234375 3.703125 0 .15625 0 .4375h-7.21875q.09375 1.59375.90625 2.453125.8125.84375 2.015625.84375.90625 0 1.546875-.46875.640625-.484375 1.015625-1.515625zm-5.390625-2.65625h5.40625q-.109375-1.21875-.625-1.828125-.78125-.953125-2.03125-.953125-1.125 0-1.90625.765625-.765625.75-.84375 2.015625zm9.125717 5.765625v-9.671875h1.46875v1.46875q.5625-1.03125 1.03125-1.359375.484375-.328125 1.0625-.328125.828125 0 1.6875.53125l-.5625 1.515625q-.609375-.359375-1.203125-.359375-.546875 0-.96875.328125-.421875.328125-.609375.890625-.28125.875-.28125 1.921875v5.0625zm8.915802 0-3.6875-9.671875h1.734375l2.078125 5.796875q.328125.9375.625 1.9375.203125-.765625.609375-1.828125l2.140625-5.90625h1.6875l-3.65625 9.671875zm13.265625-3.109375 1.6875.203125q-.40625 1.484375-1.484375 2.3125-1.078125.8125-2.765625.8125-2.125 0-3.375-1.296875-1.234375-1.3125-1.234375-3.671875 0-2.453125 1.25-3.796875 1.265625-1.34375 3.265625-1.34375 1.9375 0 3.15625 1.328125 1.234375 1.3125 1.234375 3.703125 0 .15625 0 .4375h-7.21875q.09375 1.59375.90625 2.453125.8125.84375 2.015625.84375.90625 0 1.546875-.46875.640625-.484375 1.015625-1.515625zm-5.390625-2.65625h5.40625q-.109375-1.21875-.625-1.828125-.78125-.953125-2.03125-.953125-1.125 0-1.90625.765625-.765625.75-.84375 2.015625zm9.125717 5.765625v-9.671875h1.46875v1.46875q.5625-1.03125 1.03125-1.359375.484375-.328125 1.0625-.328125.828125 0 1.6875.53125l-.5625 1.515625q-.609375-.359375-1.203125-.359375-.546875 0-.96875.328125-.421875.328125-.609375.890625-.28125.875-.28125 1.921875v5.0625zm11.411606 0v-9.671875h1.46875v1.359375q.453125-.71875 1.203125-1.140625.765625-.4375 1.71875-.4375 1.078125 0 1.765625.453125.6875.4375.96875 1.234375 1.15625-1.6875 2.984375-1.6875 1.453125 0 2.21875.796875.78125.796875.78125 2.453125v6.640625h-1.640625v-6.09375q0-.984375-.15625-1.40625-.15625-.4375-.578125-.703125-.421875-.265625-.984375-.265625-1.015625 0-1.6875.6875-.671875.671875-.671875 2.15625v5.625h-1.640625v-6.28125q0-1.09375-.40625-1.640625-.40625-.546875-1.3125-.546875-.6875 0-1.28125.359375-.59375.359375-.859375 1.0625-.25.703125-.25 2.03125v5.015625zm21.853302-1.1875q-.921875.765625-1.765625 1.09375-.828125.3125-1.796875.3125-1.59375 0-2.453125-.78125-.859375-.78125-.859375-1.984375 0-.71875.328125-1.296875.328125-.59375.84375-.9375.53125-.359375 1.1875-.546875.46875-.125 1.453125-.25 1.984375-.234375 2.921875-.5625.015625-.34375.015625-.421875 0-1-.46875-1.421875-.625-.546875-1.875-.546875-1.15625 0-1.703125.40625-.546875.40625-.8125 1.421875l-1.609375-.21875q.21875-1.015625.71875-1.640625.5-.640625 1.453125-.984375.953125-.34375 2.1875-.34375 1.25 0 2.015625.296875.78125.28125 1.140625.734375.375.4375.515625 1.109375.078125.421875.078125 1.515625v2.1875q0 2.28125.109375 2.890625.109375.59375.40625 1.15625h-1.703125q-.265625-.515625-.328125-1.1875zm-.140625-3.671875q-.890625.375-2.671875.625-1.015625.140625-1.4375.328125-.421875.1875-.65625.53125-.21875.34375-.21875.78125 0 .65625.5 1.09375.5.4375 1.453125.4375.9375 0 1.671875-.40625.75-.421875 1.09375-1.140625.265625-.5625.265625-1.640625zm10.516342 1.3125 1.609375.21875q-.265625 1.65625-1.359375 2.609375-1.078125.9375-2.671875.9375-1.984375 0-3.1875-1.296875-1.203125-1.296875-1.203125-3.71875 0-1.578125.515625-2.75.515625-1.171875 1.578125-1.75 1.0625-.59375 2.3125-.59375 1.578125 0 2.578125.796875 1 .796875 1.28125 2.265625l-1.59375.234375q-.234375-.96875-.8125-1.453125-.578125-.5-1.390625-.5-1.234375 0-2.015625.890625-.78125.890625-.78125 2.8125 0 1.953125.75 2.84375.75.875 1.953125.875.96875 0 1.609375-.59375.65625-.59375.828125-1.828125zm3.015625 3.546875v-13.359375h1.640625v4.796875q1.140625-1.328125 2.890625-1.328125 1.078125 0 1.859375.421875.796875.421875 1.140625 1.171875.34375.75.34375 2.171875v6.125h-1.640625v-6.125q0-1.234375-.53125-1.796875-.53125-.5625-1.515625-.5625-.71875 0-1.359375.390625-.640625.375-.921875 1.015625-.265625.640625-.265625 1.78125v5.296875zm10.375717-11.46875v-1.890625h1.640625v1.890625zm0 11.46875v-9.671875h1.640625v9.671875zm4.144821 0v-9.671875h1.46875v1.375q1.0625-1.59375 3.078125-1.59375.875 0 1.609375.3125.734375.3125 1.09375.828125.375.5.515625 1.203125.09375.453125.09375 1.59375v5.953125h-1.640625v-5.890625q0-1-.203125-1.484375-.1875-.5-.671875-.796875-.484375-.296875-1.140625-.296875-1.046875 0-1.8125.671875-.75.65625-.75 2.515625v5.28125zm17.000717-3.109375 1.6875.203125q-.40625 1.484375-1.484375 2.3125-1.078125.8125-2.765625.8125-2.125 0-3.375-1.296875-1.234375-1.3125-1.234375-3.671875 0-2.453125 1.25-3.796875 1.265625-1.34375 3.265625-1.34375 1.9375 0 3.15625 1.328125 1.234375 1.3125 1.234375 3.703125 0 .15625 0 .4375h-7.21875q.09375 1.59375.90625 2.453125.8125.84375 2.015625.84375.90625 0 1.546875-.46875.640625-.484375 1.015625-1.515625zm-5.390625-2.65625h5.40625q-.109375-1.21875-.625-1.828125-.78125-.953125-2.03125-.953125-1.125 0-1.90625.765625-.765625.75-.84375 2.015625z" fill="#000"/></g></svg>