<svg fill="none" stroke-linecap="square" stroke-miterlimit="10" viewBox="0 0 645.22047244 397.8687664" xmlns="http://www.w3.org/2000/svg" xmlns:xlink="http://www.w3.org/1999/xlink"><clipPath id="a"><path d="m0 0h645.22046v397.86877h-645.22046z"/></clipPath><g clip-path="url(#a)"><path d="m0 0h645.22046v397.86877h-645.22046z" fill="none"/><g fill-rule="evenodd"><path d="m15.608924 15.7979h614.9921v168h-614.9921z" fill="#d9d2e9"/><path d="m15.608924 15.7979h614.9921v168h-614.9921z" stroke="#000" stroke-linecap="butt" stroke-linejoin="round"/><path d="m169.60892 331.7979c0-9.941132 8.058884-18 18-18 4.7739105 0 9.35228 1.8964233 12.727936 5.272064 3.3756409 3.3756714 5.272064 7.9540405 5.272064 12.727936 0 9.941101-8.058868 18-18 18-9.941116 0-18-8.058899-18-18z" fill="#cfe2f3"/><path d="m169.60892 331.7979c0-9.941132 8.058884-18 18-18 4.7739105 0 9.35228 1.8964233 12.727936 5.272064 3.3756409 3.3756714 5.272064 7.9540405 5.272064 12.727936 0 9.941101-8.058868 18-18 18-9.941116 0-18-8.058899-18-18z" stroke="#000" stroke-linecap="butt" stroke-linejoin="round"/><path d="m305.10498 325.7979c0-9.941132 8.058868-18 18-18 4.7738953 0 9.352264 1.8964233 12.727936 5.272064 3.3756409 3.3756714 5.272064 7.9540405 5.272064 12.727936 0 9.941101-8.058868 18-18 18-9.941132 0-18-8.058899-18-18z" fill="#cfe2f3"/><path d="m305.10498 325.7979c0-9.941132 8.058868-18 18-18 4.7738953 0 9.352264 1.8964233 12.727936 5.272064 3.3756409 3.3756714 5.272064 7.9540405 5.272064 12.727936 0 9.941101-8.058868 18-18 18-9.941132 0-18-8.058899-18-18z" stroke="#000" stroke-linecap="butt" stroke-linejoin="round"/><path d="m424.60892 325.7979c0-9.941132 8.058868-18 18-18 4.7738953 0 9.352264 1.8964233 12.727936 5.272064 3.3756409 3.3756714 5.272064 7.9540405 5.272064 12.727936 0 9.941101-8.058868 18-18 18-9.941132 0-18-8.058899-18-18z" fill="#cfe2f3"/><path d="m424.60892 325.7979c0-9.941132 8.058868-18 18-18 4.7738953 0 9.352264 1.8964233 12.727936 5.272064 3.3756409 3.3756714 5.272064 7.9540405 5.272064 12.727936 0 9.941101-8.058868 18-18 18-9.941132 0-18-8.058899-18-18z" stroke="#000" stroke-linecap="butt" stroke-linejoin="round"/><path d="m40.608925 69.7979h123.99999v46.015755h-123.99999z" fill="#cfe2f3"/><path d="m40.608925 69.7979h123.99999v46.015755h-123.99999z" stroke="#000" stroke-linecap="butt" stroke-linejoin="round"/></g><path d="m54.187607 95.62015 1.265625-.203125q.109375.765625.59375 1.171875.5.40625 1.375.40625.890625 0 1.3125-.359375.4375-.359375.4375-.84375 0-.4375-.375-.6875-.265625-.171875-1.3125-.4375-1.421875-.359375-1.96875-.609375-.546875-.265625-.828125-.734375-.28125-.46875-.28125-1.015625 0-.515625.21875-.9375.234375-.4375.640625-.734375.296875-.21875.8125-.359375.53125-.15625 1.125-.15625.890625 0 1.5625.265625.671875.25 1 .6875.328125.4375.4375 1.171875l-1.25.171875q-.09375-.578125-.5-.90625-.40625-.34375-1.15625-.34375-.890625 0-1.28125.296875-.375.296875-.375.6875 0 .25.15625.453125.15625.203125.5.34375.1875.078125 1.140625.328125 1.359375.359375 1.890625.59375.546875.234375.859375.6875.3125.4375.3125 1.09375 0 .640625-.375 1.21875-.375.5625-1.09375.875-.703125.3125-1.59375.3125-1.484375 0-2.265625-.609375-.765625-.625-.984375-1.828125zm7.359375-1.53125q0-2.109375 1.171875-3.125.984375-.84375 2.390625-.84375 1.578125 0 2.5625 1.03125 1 1.015625 1 2.828125 0 1.46875-.4375 2.3125-.4375.828125-1.28125 1.296875-.84375.46875-1.84375.46875-1.59375 0-2.578125-1.015625-.984375-1.03125-.984375-2.953125zm1.328125 0q0 1.453125.625 2.1875.640625.71875 1.609375.71875.96875 0 1.59375-.71875.640625-.734375.640625-2.234375 0-1.40625-.640625-2.125-.640625-.734375-1.59375-.734375-.96875 0-1.609375.71875-.625.71875-.625 2.1875zm12.260483 1.015625 1.265625.15625q-.203125 1.3125-1.0625 2.0625-.84375.734375-2.09375.734375-1.5625 0-2.515625-1.015625-.9375-1.03125-.9375-2.921875 0-1.234375.40625-2.15625.40625-.921875 1.234375-1.375.84375-.46875 1.8125-.46875 1.25 0 2.03125.625.78125.625 1.015625 1.765625l-1.265625.203125q-.171875-.765625-.625-1.15625-.453125-.390625-1.09375-.390625-.984375 0-1.59375.703125-.609375.703125-.609375 2.203125 0 1.53125.578125 2.234375.59375.6875 1.546875.6875.75 0 1.265625-.453125.515625-.46875.640625-1.4375zm2.375 2.78125v-10.484375h1.296875v5.96875l3.046875-3.078125h1.671875l-2.90625 2.8125 3.1875 4.78125h-1.578125l-2.515625-3.890625-.90625.875v3.015625zm12.53125-2.453125 1.328125.171875q-.3125 1.171875-1.171875 1.8125-.84375.640625-2.171875.640625-1.671875 0-2.65625-1.015625-.96875-1.03125-.96875-2.890625 0-1.921875.984375-2.96875 1-1.0625 2.578125-1.0625 1.515625 0 2.484375 1.03125.96875 1.03125.96875 2.921875 0 .109375-.015625.34375h-5.65625q.0625 1.25.703125 1.921875.640625.65625 1.59375.65625.703125 0 1.203125-.359375.5-.375.796875-1.203125zm-4.234375-2.078125h4.25q-.09375-.953125-.484375-1.4375-.625-.75-1.609375-.75-.875 0-1.484375.59375-.609375.59375-.671875 1.59375zm9.994858 3.375.1875 1.140625q-.546875.109375-.984375.109375-.6875 0-1.078125-.21875-.390625-.21875-.546875-.578125-.15625-.359375-.15625-1.515625v-4.375h-.953125v-1h.953125v-1.890625l1.28125-.765625v2.65625h1.296875v1h-1.296875v4.4375q0 .546875.0625.71875.078125.15625.21875.25.15625.078125.453125.078125.203125 0 .5625-.046875zm5.3314514 4.0625v-10.5h1.171875v.984375q.421875-.578125.9375-.859375.515625-.296875 1.265625-.296875.96875 0 1.71875.5.75.5 1.125 1.421875.375.90625.375 1.984375 0 1.171875-.421875 2.109375-.40625.921875-1.21875 1.421875-.796875.5-1.671875.5-.640625 0-1.15625-.265625-.515625-.28125-.84375-.6875v3.6875zm1.15625-6.65625q0 1.453125.59375 2.15625.609375.703125 1.453125.703125.859375 0 1.46875-.71875.609375-.734375.609375-2.25 0-1.453125-.609375-2.171875-.59375-.734375-1.421875-.734375-.8125 0-1.453125.78125-.640625.765625-.640625 2.234375zm6.979233 3.75v-7.59375h1.15625v1.140625q.453125-.796875.828125-1.046875.375-.265625.8125-.265625.65625 0 1.328125.40625l-.4375 1.203125q-.46875-.28125-.953125-.28125-.421875 0-.765625.25-.328125.25-.46875.703125-.21875.6875-.21875 1.5v3.984375zm4.4118958-3.796875q0-2.109375 1.171875-3.125.984375-.84375 2.390625-.84375 1.578125 0 2.5625 1.03125 1 1.015625 1 2.828125 0 1.46875-.4375 2.3125-.4375.828125-1.28125 1.296875-.84375.46875-1.84375.46875-1.59375 0-2.578125-1.015625-.984375-1.03125-.984375-2.953125zm1.328125 0q0 1.453125.625 2.1875.640625.71875 1.609375.71875.96875 0 1.59375-.71875.640625-.734375.640625-2.234375 0-1.40625-.640625-2.125-.640625-.734375-1.59375-.734375-.96875 0-1.609375.71875-.625.71875-.625 2.1875zm12.260483 1.015625 1.265625.15625q-.203125 1.3125-1.0625 2.0625-.84375.734375-2.09375.734375-1.5625 0-2.515625-1.015625-.9375-1.03125-.9375-2.921875 0-1.234375.40625-2.15625.40625-.921875 1.234375-1.375.84375-.46875 1.8125-.46875 1.25 0 2.03125.625.78125.625 1.015625 1.765625l-1.265625.203125q-.171875-.765625-.625-1.15625-.453125-.390625-1.09375-.390625-.984375 0-1.59375.703125-.609375.703125-.609375 2.203125 0 1.53125.578125 2.234375.59375.6875 1.546875.6875.75 0 1.265625-.453125.515625-.46875.640625-1.4375zm7.578125.328125 1.328125.171875q-.3125 1.171875-1.171875 1.8125-.84375.640625-2.171875.640625-1.671875 0-2.65625-1.015625-.96875-1.03125-.96875-2.890625 0-1.921875.984375-2.96875 1-1.0625 2.578125-1.0625 1.515625 0 2.484375 1.03125.96875 1.03125.96875 2.921875 0 .109375-.015625.34375h-5.65625q.0625 1.25.703125 1.921875.640625.65625 1.59375.65625.703125 0 1.203125-.359375.5-.375.796875-1.203125zm-4.234375-2.078125h4.25q-.09375-.953125-.484375-1.4375-.625-.75-1.609375-.75-.875 0-1.484375.59375-.609375.59375-.671875 1.59375zm6.666733 2.265625 1.265625-.203125q.109375.765625.59375 1.171875.5.40625 1.375.40625.890625 0 1.3125-.359375.4375-.359375.4375-.84375 0-.4375-.375-.6875-.265625-.171875-1.3125-.4375-1.421875-.359375-1.96875-.609375-.546875-.265625-.828125-.734375-.28125-.46875-.28125-1.015625 0-.515625.21875-.9375.234375-.4375.640625-.734375.296875-.21875.8125-.359375.53125-.15625 1.125-.15625.890625 0 1.5625.265625.671875.25 1 .6875.328125.4375.4375 1.171875l-1.25.171875q-.09375-.578125-.5-.90625-.40625-.34375-1.15625-.34375-.890625 0-1.28125.296875-.375.296875-.375.6875 0 .25.15625.453125.15625.203125.5.34375.1875.078125 1.140625.328125 1.359375.359375 1.890625.59375.546875.234375.859375.6875.3125.4375.3125 1.09375 0 .640625-.375 1.21875-.375.5625-1.09375.875-.703125.3125-1.59375.3125-1.484375 0-2.265625-.609375-.765625-.625-.984375-1.828125zm7.328125 0 1.265625-.203125q.109375.765625.59375 1.171875.5.40625 1.375.40625.890625 0 1.3125-.359375.4375-.359375.4375-.84375 0-.4375-.375-.6875-.265625-.171875-1.3125-.4375-1.421875-.359375-1.96875-.609375-.546875-.265625-.828125-.734375-.28125-.46875-.28125-1.015625 0-.515625.21875-.9375.234375-.4375.640625-.734375.296875-.21875.8125-.359375.53125-.15625 1.125-.15625.890625 0 1.5625.265625.671875.25 1 .6875.328125.4375.4375 1.171875l-1.25.171875q-.09375-.578125-.5-.90625-.40625-.34375-1.15625-.34375-.890625 0-1.28125.296875-.375.296875-.375.6875 0 .25.15625.453125.15625.203125.5.34375.1875.078125 1.140625.328125 1.359375.359375 1.890625.59375.546875.234375.859375.6875.3125.4375.3125 1.09375 0 .640625-.375 1.21875-.375.5625-1.09375.875-.703125.3125-1.59375.3125-1.484375 0-2.265625-.609375-.765625-.625-.984375-1.828125z" fill="#000"/><path d="m188.60892 69.7979h124v46.015755h-124z" fill="#cfe2f3" fill-rule="evenodd"/><path d="m188.60892 69.7979h124v46.015755h-124z" fill-rule="evenodd" stroke="#000" stroke-linecap="butt" stroke-linejoin="round"/><path d="m202.1876 95.62015 1.265625-.203125q.109375.765625.59375 1.171875.5.40625 1.375.40625.890625 0 1.3125-.359375.4375-.359375.4375-.84375 0-.4375-.375-.6875-.265625-.171875-1.3125-.4375-1.421875-.359375-1.96875-.609375-.546875-.265625-.828125-.734375-.28125-.46875-.28125-1.015625 0-.515625.21875-.9375.234375-.4375.640625-.734375.296875-.21875.8125-.359375.53125-.15625 1.125-.15625.890625 0 1.5625.265625.671875.25 1 .6875.328125.4375.4375 1.171875l-1.25.171875q-.09375-.578125-.5-.90625-.40625-.34375-1.15625-.34375-.890625 0-1.28125.296875-.375.296875-.375.6875 0 .25.15625.453125.15625.203125.5.34375.1875.078125 1.140625.328125 1.359375.359375 1.890625.59375.546875.234375.859375.6875.3125.4375.3125 1.09375 0 .640625-.375 1.21875-.375.5625-1.09375.875-.703125.3125-1.59375.3125-1.484375 0-2.265625-.609375-.765625-.625-.984375-1.828125zm7.359375-1.53125q0-2.109375 1.171875-3.125.984375-.84375 2.390625-.84375 1.578125 0 2.5625 1.03125 1 1.015625 1 2.828125 0 1.46875-.4375 2.3125-.4375.828125-1.28125 1.296875-.84375.46875-1.84375.46875-1.59375 0-2.578125-1.015625-.984375-1.03125-.984375-2.953125zm1.328125 0q0 1.453125.625 2.1875.640625.71875 1.609375.71875.96875 0 1.59375-.71875.640625-.734375.640625-2.234375 0-1.40625-.640625-2.125-.640625-.734375-1.59375-.734375-.96875 0-1.609375.71875-.625.71875-.625 2.1875zm12.260483 1.015625 1.265625.15625q-.203125 1.3125-1.0625 2.0625-.84375.734375-2.09375.734375-1.5625 0-2.515625-1.015625-.9375-1.03125-.9375-2.921875 0-1.234375.40625-2.15625.40625-.921875 1.234375-1.375.84375-.46875 1.8125-.46875 1.25 0 2.03125.625.78125.625 1.015625 1.765625l-1.265625.203125q-.171875-.765625-.625-1.15625-.453125-.390625-1.09375-.390625-.984375 0-1.59375.703125-.609375.703125-.609375 2.203125 0 1.53125.578125 2.234375.59375.6875 1.546875.6875.75 0 1.265625-.453125.515625-.46875.640625-1.4375zm2.375 2.78125v-10.484375h1.296875v5.96875l3.046875-3.078125h1.671875l-2.90625 2.8125 3.1875 4.78125h-1.578125l-2.515625-3.890625-.90625.875v3.015625zm12.53125-2.453125 1.328125.171875q-.3125 1.171875-1.171875 1.8125-.84375.640625-2.171875.640625-1.671875 0-2.65625-1.015625-.96875-1.03125-.96875-2.890625 0-1.921875.984375-2.96875 1-1.0625 2.578125-1.0625 1.515625 0 2.484375 1.03125.96875 1.03125.96875 2.921875 0 .109375-.015625.34375h-5.65625q.0625 1.25.703125 1.921875.640625.65625 1.59375.65625.703125 0 1.203125-.359375.5-.375.796875-1.203125zm-4.234375-2.078125h4.25q-.09375-.953125-.484375-1.4375-.625-.75-1.609375-.75-.875 0-1.484375.59375-.609375.59375-.671875 1.59375zm9.994858 3.375.1875 1.140625q-.546875.109375-.984375.109375-.6875 0-1.078125-.21875-.390625-.21875-.546875-.578125-.15625-.359375-.15625-1.515625v-4.375h-.953125v-1h.953125v-1.890625l1.28125-.765625v2.65625h1.296875v1h-1.296875v4.4375q0 .546875.0625.71875.078125.15625.21875.25.15625.078125.453125.078125.203125 0 .5625-.046875zm5.3314514 4.0625v-10.5h1.171875v.984375q.421875-.578125.9375-.859375.515625-.296875 1.265625-.296875.96875 0 1.71875.5.75.5 1.125 1.421875.375.90625.375 1.984375 0 1.171875-.421875 2.109375-.40625.921875-1.21875 1.421875-.796875.5-1.671875.5-.640625 0-1.15625-.265625-.515625-.28125-.84375-.6875v3.6875zm1.15625-6.65625q0 1.453125.59375 2.15625.609375.703125 1.453125.703125.859375 0 1.46875-.71875.609375-.734375.609375-2.25 0-1.453125-.609375-2.171875-.59375-.734375-1.421875-.734375-.8125 0-1.453125.78125-.640625.765625-.640625 2.234375zm6.979233 3.75v-7.59375h1.15625v1.140625q.453125-.796875.828125-1.046875.375-.265625.8125-.265625.65625 0 1.328125.40625l-.4375 1.203125q-.46875-.28125-.953125-.28125-.421875 0-.765625.25-.328125.25-.46875.703125-.21875.6875-.21875 1.5v3.984375zm4.4118958-3.796875q0-2.109375 1.171875-3.125.984375-.84375 2.390625-.84375 1.578125 0 2.5625 1.03125 1 1.015625 1 2.828125 0 1.46875-.4375 2.3125-.4375.828125-1.28125 1.296875-.84375.46875-1.84375.46875-1.59375 0-2.578125-1.015625-.984375-1.03125-.984375-2.953125zm1.328125 0q0 1.453125.625 2.1875.640625.71875 1.609375.71875.96875 0 1.59375-.71875.640625-.734375.640625-2.234375 0-1.40625-.640625-2.125-.640625-.734375-1.59375-.734375-.96875 0-1.609375.71875-.625.71875-.625 2.1875zm12.260468 1.015625 1.265625.15625q-.203125 1.3125-1.0625 2.0625-.84375.734375-2.09375.734375-1.5625 0-2.515625-1.015625-.9375-1.03125-.9375-2.921875 0-1.234375.40625-2.15625.40625-.921875 1.234375-1.375.84375-.46875 1.8125-.46875 1.25 0 2.03125.625.78125.625 1.015625 1.765625l-1.265625.203125q-.171875-.765625-.625-1.15625-.453125-.390625-1.09375-.390625-.984375 0-1.59375.703125-.609375.703125-.609375 2.203125 0 1.53125.578125 2.234375.59375.6875 1.546875.6875.75 0 1.265625-.453125.515625-.46875.640625-1.4375zm7.578125.328125 1.328125.171875q-.3125 1.171875-1.171875 1.8125-.84375.640625-2.171875.640625-1.671875 0-2.65625-1.015625-.96875-1.03125-.96875-2.890625 0-1.921875.984375-2.96875 1-1.0625 2.578125-1.0625 1.515625 0 2.484375 1.03125.96875 1.03125.96875 2.921875 0 .109375-.015625.34375h-5.65625q.0625 1.25.703125 1.921875.640625.65625 1.59375.65625.703125 0 1.203125-.359375.5-.375.796875-1.203125zm-4.234375-2.078125h4.25q-.09375-.953125-.484375-1.4375-.625-.75-1.609375-.75-.875 0-1.484375.59375-.609375.59375-.671875 1.59375zm6.666748 2.265625 1.265625-.203125q.109375.765625.59375 1.171875.5.40625 1.375.40625.890625 0 1.3125-.359375.4375-.359375.4375-.84375 0-.4375-.375-.6875-.265625-.171875-1.3125-.4375-1.421875-.359375-1.96875-.609375-.546875-.265625-.828125-.734375-.28125-.46875-.28125-1.015625 0-.515625.21875-.9375.234375-.4375.640625-.734375.296875-.21875.8125-.359375.53125-.15625 1.125-.15625.890625 0 1.5625.265625.671875.25 1 .6875.328125.4375.4375 1.171875l-1.25.171875q-.09375-.578125-.5-.90625-.40625-.34375-1.15625-.34375-.890625 0-1.28125.296875-.375.296875-.375.6875 0 .25.15625.453125.15625.203125.5.34375.1875.078125 1.140625.328125 1.359375.359375 1.890625.59375.546875.234375.859375.6875.3125.4375.3125 1.09375 0 .640625-.375 1.21875-.375.5625-1.09375.875-.703125.3125-1.59375.3125-1.484375 0-2.265625-.609375-.765625-.625-.984375-1.828125zm7.328125 0 1.265625-.203125q.109375.765625.59375 1.171875.5.40625 1.375.40625.890625 0 1.3125-.359375.4375-.359375.4375-.84375 0-.4375-.375-.6875-.265625-.171875-1.3125-.4375-1.421875-.359375-1.96875-.609375-.546875-.265625-.828125-.734375-.28125-.46875-.28125-1.015625 0-.515625.21875-.9375.234375-.4375.640625-.734375.296875-.21875.8125-.359375.53125-.15625 1.125-.15625.890625 0 1.5625.265625.671875.25 1 .6875.328125.4375.4375 1.171875l-1.25.171875q-.09375-.578125-.5-.90625-.40625-.34375-1.15625-.34375-.890625 0-1.28125.296875-.375.296875-.375.6875 0 .25.15625.453125.15625.203125.5.34375.1875.078125 1.140625.328125 1.359375.359375 1.890625.59375.546875.234375.859375.6875.3125.4375.3125 1.09375 0 .640625-.375 1.21875-.375.5625-1.09375.875-.703125.3125-1.59375.3125-1.484375 0-2.265625-.609375-.765625-.625-.984375-1.828125z" fill="#000"/><path d="m187.60892 313.7979-85.007866-197.98425" fill="none"/><path d="m187.60892 313.7979-80.27343-186.9577" style="stroke:#cc4125;stroke-width:2;stroke-linejoin:round;stroke-linecap:butt;stroke-dasharray:8 6;fill-rule:evenodd"/><path d="m110.37098 125.53687-6.616379-7.036598.5454025 9.64328z" fill="#cc4125" fill-rule="evenodd" stroke="#cc4125" stroke-linecap="butt" stroke-width="2"/><path d="m323.10498 307.7979 75.49606-191.9685" fill="none"/><path d="m323.10498 307.7979 71.10422-180.80109" style="stroke:#ffd966;stroke-width:2;stroke-linejoin:round;stroke-linecap:butt;stroke-dasharray:8 6;fill-rule:evenodd"/><path d="m397.28348 128.20586.24749756-9.65551-6.396057 7.2374573z" fill="#ffd966" fill-rule="evenodd" stroke="#ffd966" stroke-linecap="butt" stroke-width="2"/><path d="m442.60892 307.7979-192-191.9685" fill="none"/><path d="m442.60892 307.7979-183.514-183.48393" style="stroke:#93c47d;stroke-width:2;stroke-linejoin:round;stroke-linecap:butt;stroke-dasharray:8 6;fill-rule:evenodd"/><path d="m261.4306 121.97789-8.754074-4.0812225 4.082657 8.75341z" fill="#93c47d" fill-rule="evenodd" stroke="#93c47d" stroke-linecap="butt" stroke-width="2"/><path d="m236.60104 357.7979h173.00787v31.968506h-173.00787z" fill="none"/><path d="m249.36667 384.7179-3.53125-13.359375h1.8125l2.03125 8.765625q.328125 1.375.5625 2.71875.5-2.140625.59375-2.46875l2.546875-9.015625h2.125l1.921875 6.765625q.71875 2.515625 1.03125 4.71875.265625-1.265625.671875-2.890625l2.09375-8.59375h1.78125l-3.671875 13.359375h-1.703125l-2.8125-10.171875q-.359375-1.28125-.421875-1.5625-.203125.90625-.390625 1.5625l-2.828125 10.171875zm21.702423-3.109375 1.6875.203125q-.40625 1.484375-1.484375 2.3125-1.078125.8125-2.765625.8125-2.125 0-3.375-1.296875-1.234375-1.3125-1.234375-3.671875 0-2.453125 1.25-3.796875 1.265625-1.34375 3.265625-1.34375 1.9375 0 3.15625 1.328125 1.234375 1.3125 1.234375 3.703125 0 .15625 0 .4375h-7.21875q.09375 1.59375.90625 2.453125.8125.84375 2.015625.84375.90625 0 1.546875-.46875.640625-.484375 1.015625-1.515625zm-5.390625-2.65625h5.40625q-.109375-1.21875-.625-1.828125-.78125-.953125-2.03125-.953125-1.125 0-1.90625.765625-.765625.75-.84375 2.015625zm10.641327 5.765625h-1.515625v-13.359375h1.640625v4.765625q1.046875-1.296875 2.65625-1.296875.890625 0 1.6875.359375.796875.359375 1.3125 1.015625.515625.640625.796875 1.5625.296875.921875.296875 1.96875 0 2.484375-1.234375 3.84375-1.21875 1.359375-2.953125 1.359375-1.703125 0-2.6875-1.4375zm-.015625-4.90625q0 1.734375.484375 2.515625.765625 1.265625 2.09375 1.265625 1.078125 0 1.859375-.9375.78125-.9375.78125-2.78125 0-1.890625-.75-2.796875-.75-.90625-1.828125-.90625-1.0625 0-1.859375.9375-.78125.9375-.78125 2.703125zm8.500732.609375 1.65625-.140625q.125 1 .546875 1.640625.4375.640625 1.34375 1.046875.921875.390625 2.0625.390625 1 0 1.78125-.296875.78125-.296875 1.15625-.8125.375-.53125.375-1.15625 0-.625-.375-1.09375-.359375-.46875-1.1875-.796875-.546875-.203125-2.390625-.640625-1.828125-.453125-2.5625-.84375-.96875-.5-1.4375-1.234375-.46875-.75-.46875-1.671875 0-1 .578125-1.875.578125-.890625 1.671875-1.34375 1.109375-.453125 2.453125-.453125 1.484375 0 2.609375.484375 1.140625.46875 1.75 1.40625.609375.921875.65625 2.09375l-1.6875.125q-.140625-1.265625-.9375-1.90625-.78125-.65625-2.3125-.65625-1.609375 0-2.34375.59375-.734375.59375-.734375 1.421875 0 .71875.53125 1.171875.5.46875 2.65625.96875 2.15625.484375 2.953125.84375 1.171875.53125 1.71875 1.359375.5625.828125.5625 1.90625 0 1.0625-.609375 2.015625-.609375.9375-1.75 1.46875-1.140625.515625-2.578125.515625-1.8125 0-3.046875-.53125-1.21875-.53125-1.921875-1.59375-.6875-1.0625-.71875-2.40625zm12.224823-.546875q0-2.6875 1.484375-3.96875 1.25-1.078125 3.046875-1.078125 2 0 3.265625 1.3125 1.265625 1.296875 1.265625 3.609375 0 1.859375-.5625 2.9375-.5625 1.0625-1.640625 1.65625-1.0625.59375-2.328125.59375-2.03125 0-3.28125-1.296875-1.25-1.3125-1.25-3.765625zm1.6875 0q0 1.859375.796875 2.796875.8125.921875 2.046875.921875 1.21875 0 2.03125-.921875.8125-.9375.8125-2.84375 0-1.796875-.8125-2.71875-.8125-.921875-2.03125-.921875-1.234375 0-2.046875.921875-.796875.90625-.796875 2.765625zm15.610077 1.296875 1.609375.21875q-.265625 1.65625-1.359375 2.609375-1.078125.9375-2.671875.9375-1.984375 0-3.1875-1.296875-1.203125-1.296875-1.203125-3.71875 0-1.578125.515625-2.75.515625-1.171875 1.578125-1.75 1.0625-.59375 2.3125-.59375 1.578125 0 2.578125.796875 1 .796875 1.28125 2.265625l-1.59375.234375q-.234375-.96875-.8125-1.453125-.578125-.5-1.390625-.5-1.234375 0-2.015625.890625-.78125.890625-.78125 2.8125 0 1.953125.75 2.84375.75.875 1.953125.875.96875 0 1.609375-.59375.65625-.59375.828125-1.828125zm3.015625 3.546875v-13.359375h1.640625v7.625l3.890625-3.9375h2.109375l-3.6875 3.59375 4.0625 6.078125h-2.015625l-3.203125-4.953125-1.15625 1.125v3.828125zm15.953125-3.109375 1.6875.203125q-.40625 1.484375-1.484375 2.3125-1.078125.8125-2.765625.8125-2.125 0-3.375-1.296875-1.234375-1.3125-1.234375-3.671875 0-2.453125 1.25-3.796875 1.265625-1.34375 3.265625-1.34375 1.9375 0 3.15625 1.328125 1.234375 1.3125 1.234375 3.703125 0 .15625 0 .4375h-7.21875q.09375 1.59375.90625 2.453125.8125.84375 2.015625.84375.90625 0 1.546875-.46875.640625-.484375 1.015625-1.515625zm-5.390625-2.65625h5.40625q-.109375-1.21875-.625-1.828125-.78125-.953125-2.03125-.953125-1.125 0-1.90625.765625-.765625.75-.84375 2.015625zm12.719482 4.296875.234375 1.453125q-.6875.140625-1.234375.140625-.890625 0-1.390625-.28125-.484375-.28125-.6875-.734375-.203125-.46875-.203125-1.9375v-5.578125h-1.203125v-1.265625h1.203125v-2.390625l1.625-.984375v3.375h1.65625v1.265625h-1.65625v5.671875q0 .6875.078125.890625.09375.203125.28125.328125.203125.109375.578125.109375.265625 0 .71875-.0625zm13.100983-2.078125 1.609375.21875q-.265625 1.65625-1.359375 2.609375-1.078125.9375-2.671875.9375-1.984375 0-3.1875-1.296875-1.203125-1.296875-1.203125-3.71875 0-1.578125.515625-2.75.515625-1.171875 1.578125-1.75 1.0625-.59375 2.3125-.59375 1.578125 0 2.578125.796875 1 .796875 1.28125 2.265625l-1.59375.234375q-.234375-.96875-.8125-1.453125-.578125-.5-1.390625-.5-1.234375 0-2.015625.890625-.78125.890625-.78125 2.8125 0 1.953125.75 2.84375.75.875 1.953125.875.96875 0 1.609375-.59375.65625-.59375.828125-1.828125zm2.96875 3.546875v-13.359375h1.640625v13.359375zm4.191681-11.46875v-1.890625h1.640625v1.890625zm0 11.46875v-9.671875h1.640625v9.671875zm10.769836-3.109375 1.6875.203125q-.40625 1.484375-1.484375 2.3125-1.078125.8125-2.765625.8125-2.125 0-3.375-1.296875-1.234375-1.3125-1.234375-3.671875 0-2.453125 1.25-3.796875 1.265625-1.34375 3.265625-1.34375 1.9375 0 3.15625 1.328125 1.234375 1.3125 1.234375 3.703125 0 .15625 0 .4375h-7.21875q.09375 1.59375.90625 2.453125.8125.84375 2.015625.84375.90625 0 1.546875-.46875.640625-.484375 1.015625-1.515625zm-5.390625-2.65625h5.40625q-.109375-1.21875-.625-1.828125-.78125-.953125-2.03125-.953125-1.125 0-1.90625.765625-.765625.75-.84375 2.015625zm9.141327 5.765625v-9.671875h1.46875v1.375q1.0625-1.59375 3.078125-1.59375.875 0 1.609375.3125.734375.3125 1.09375.828125.375.5.515625 1.203125.09375.453125.09375 1.59375v5.953125h-1.640625v-5.890625q0-1-.203125-1.484375-.1875-.5-.671875-.796875-.484375-.296875-1.140625-.296875-1.046875 0-1.8125.671875-.75.65625-.75 2.515625v5.28125zm13.953857-1.46875.234375 1.453125q-.6875.140625-1.234375.140625-.890625 0-1.390625-.28125-.484375-.28125-.6875-.734375-.203125-.46875-.203125-1.9375v-5.578125h-1.203125v-1.265625h1.203125v-2.390625l1.625-.984375v3.375h1.65625v1.265625h-1.65625v5.671875q0 .6875.078125.890625.09375.203125.28125.328125.203125.109375.578125.109375.265625 0 .71875-.0625zm.9489136-1.421875 1.625-.25q.125.96875.75 1.5.625.515625 1.75.515625 1.125 0 1.671875-.453125.546875-.46875.546875-1.09375 0-.546875-.484375-.875-.328125-.21875-1.671875-.546875-1.8125-.46875-2.515625-.796875-.6875-.328125-1.046875-.90625-.359375-.59375-.359375-1.3125 0-.640625.296875-1.1875.296875-.5625.8125-.921875.375-.28125 1.03125-.46875.671875-.203125 1.421875-.203125 1.140625 0 2 .328125.859375.328125 1.265625.890625.421875.5625.578125 1.5l-1.609375.21875q-.109375-.75-.640625-1.171875-.515625-.421875-1.46875-.421875-1.140625 0-1.625.375-.46875.375-.46875.875 0 .3125.1875.578125.203125.265625.640625.4375.234375.09375 1.4375.421875 1.75.453125 2.4375.75.6875.296875 1.078125.859375.390625.5625.390625 1.40625 0 .828125-.484375 1.546875-.46875.71875-1.375 1.125-.90625.390625-2.046875.390625-1.875 0-2.875-.78125-.984375-.78125-1.25-2.328125z" fill="#000"/><path d="m395.60892 222.78609h132.00003v46.015762h-132.00003z" fill="none"/><path d="m415.57767 245.01859 1.765625.453125q-.5625 2.171875-2 3.328125-1.4375 1.140625-3.53125 1.140625-2.15625 0-3.515625-.875-1.34375-.890625-2.0625-2.546875-.703125-1.671875-.703125-3.59375 0-2.078125.796875-3.625.796875-1.5625 2.265625-2.359375 1.484375-.8125 3.25-.8125 2 0 3.359375 1.015625 1.375 1.015625 1.90625 2.875l-1.734375.40625q-.46875-1.453125-1.359375-2.109375-.875-.671875-2.203125-.671875-1.546875 0-2.578125.734375-1.03125.734375-1.453125 1.984375-.421875 1.234375-.421875 2.5625 0 1.703125.5 2.96875.5 1.265625 1.546875 1.90625 1.046875.625 2.265625.625 1.484375 0 2.515625-.859375 1.03125-.859375 1.390625-2.546875zm3.1292114-.15625q0-2.6875 1.484375-3.96875 1.25-1.078125 3.046875-1.078125 2 0 3.265625 1.3125 1.265625 1.296875 1.265625 3.609375 0 1.859375-.5625 2.9375-.5625 1.0625-1.640625 1.65625-1.0625.59375-2.328125.59375-2.03125 0-3.28125-1.296875-1.25-1.3125-1.25-3.765625zm1.6875 0q0 1.859375.796875 2.796875.8125.921875 2.046875.921875 1.21875 0 2.03125-.921875.8125-.9375.8125-2.84375 0-1.796875-.8125-2.71875-.8125-.921875-2.03125-.921875-1.234375 0-2.046875.921875-.796875.90625-.796875 2.765625zm9.297577 4.84375v-9.671875h1.46875v1.375q1.0625-1.59375 3.078125-1.59375.875 0 1.609375.3125.734375.3125 1.09375.828125.375.5.515625 1.203125.09375.453125.09375 1.59375v5.953125h-1.640625v-5.890625q0-1-.203125-1.484375-.1875-.5-.671875-.796875-.484375-.296875-1.140625-.296875-1.046875 0-1.8125.671875-.75.65625-.75 2.515625v5.28125zm10.375732 0v-9.671875h1.46875v1.375q1.0625-1.59375 3.078125-1.59375.875 0 1.609375.3125.734375.3125 1.09375.828125.375.5.515625 1.203125.09375.453125.09375 1.59375v5.953125h-1.640625v-5.890625q0-1-.203125-1.484375-.1875-.5-.671875-.796875-.484375-.296875-1.140625-.296875-1.046875 0-1.8125.671875-.75.65625-.75 2.515625v5.28125zm17.000702-3.109375 1.6875.203125q-.40625 1.484375-1.484375 2.3125-1.078125.8125-2.765625.8125-2.125 0-3.375-1.296875-1.234375-1.3125-1.234375-3.671875 0-2.453125 1.25-3.796875 1.265625-1.34375 3.265625-1.34375 1.9375 0 3.15625 1.328125 1.234375 1.3125 1.234375 3.703125 0 .15625 0 .4375h-7.21875q.09375 1.59375.90625 2.453125.8125.84375 2.015625.84375.90625 0 1.546875-.46875.640625-.484375 1.015625-1.515625zm-5.390625-2.65625h5.40625q-.109375-1.21875-.625-1.828125-.78125-.953125-2.03125-.953125-1.125 0-1.90625.765625-.765625.75-.84375 2.015625zm15.453857 2.21875 1.609375.21875q-.265625 1.65625-1.359375 2.609375-1.078125.9375-2.671875.9375-1.984375 0-3.1875-1.296875-1.203125-1.296875-1.203125-3.71875 0-1.578125.515625-2.75.515625-1.171875 1.578125-1.75 1.0625-.59375 2.3125-.59375 1.578125 0 2.578125.796875 1 .796875 1.28125 2.265625l-1.59375.234375q-.234375-.96875-.8125-1.453125-.578125-.5-1.390625-.5-1.234375 0-2.015625.890625-.78125.890625-.78125 2.8125 0 1.953125.75 2.84375.75.875 1.953125.875.96875 0 1.609375-.59375.65625-.59375.828125-1.828125zm6.59375 2.078125.234375 1.453125q-.6875.140625-1.234375.140625-.890625 0-1.390625-.28125-.484375-.28125-.6875-.734375-.203125-.46875-.203125-1.9375v-5.578125h-1.203125v-1.265625h1.203125v-2.390625l1.625-.984375v3.375h1.65625v1.265625h-1.65625v5.671875q0 .6875.078125.890625.09375.203125.28125.328125.203125.109375.578125.109375.265625 0 .71875-.0625zm1.6051636-10v-1.890625h1.640625v1.890625zm0 11.46875v-9.671875h1.640625v9.671875zm3.5354614-4.84375q0-2.6875 1.484375-3.96875 1.25-1.078125 3.046875-1.078125 2 0 3.265625 1.3125 1.265625 1.296875 1.265625 3.609375 0 1.859375-.5625 2.9375-.5625 1.0625-1.640625 1.65625-1.0625.59375-2.328125.59375-2.03125 0-3.28125-1.296875-1.25-1.3125-1.25-3.765625zm1.6875 0q0 1.859375.796875 2.796875.8125.921875 2.046875.921875 1.21875 0 2.03125-.921875.8125-.9375.8125-2.84375 0-1.796875-.8125-2.71875-.8125-.921875-2.03125-.921875-1.234375 0-2.046875.921875-.796875.90625-.796875 2.765625zm9.297577 4.84375v-9.671875h1.46875v1.375q1.0625-1.59375 3.078125-1.59375.875 0 1.609375.3125.734375.3125 1.09375.828125.375.5.515625 1.203125.09375.453125.09375 1.59375v5.953125h-1.640625v-5.890625q0-1-.203125-1.484375-.1875-.5-.671875-.796875-.484375-.296875-1.140625-.296875-1.046875 0-1.8125.671875-.75.65625-.75 2.515625v5.28125zm9.719482-2.890625 1.625-.25q.125.96875.75 1.5.625.515625 1.75.515625 1.125 0 1.671875-.453125.546875-.46875.546875-1.09375 0-.546875-.484375-.875-.328125-.21875-1.671875-.546875-1.8125-.46875-2.515625-.796875-.6875-.328125-1.046875-.90625-.359375-.59375-.359375-1.3125 0-.640625.296875-1.1875.296875-.5625.8125-.921875.375-.28125 1.03125-.46875.671875-.203125 1.421875-.203125 1.140625 0 2 .328125.859375.328125 1.265625.890625.421875.5625.578125 1.5l-1.609375.21875q-.109375-.75-.640625-1.171875-.515625-.421875-1.46875-.421875-1.140625 0-1.625.375-.46875.375-.46875.875 0 .3125.1875.578125.203125.265625.640625.4375.234375.09375 1.4375.421875 1.75.453125 2.4375.75.6875.296875 1.078125.859375.390625.5625.390625 1.40625 0 .828125-.484375 1.546875-.46875.71875-1.375 1.125-.90625.390625-2.046875.390625-1.875 0-2.875-.78125-.984375-.78125-1.25-2.328125z" fill="#000"/><path d="m336.60892 69.7979h124v46.015755h-124z" fill="#cfe2f3" fill-rule="evenodd"/><path d="m336.60892 69.7979h124v46.015755h-124z" fill-rule="evenodd" stroke="#000" stroke-linecap="butt" stroke-linejoin="round"/><path d="m350.1876 95.62015 1.265625-.203125q.109375.765625.59375 1.171875.5.40625 1.375.40625.890625 0 1.3125-.359375.4375-.359375.4375-.84375 0-.4375-.375-.6875-.265625-.171875-1.3125-.4375-1.421875-.359375-1.96875-.609375-.546875-.265625-.828125-.734375-.28125-.46875-.28125-1.015625 0-.515625.21875-.9375.234375-.4375.640625-.734375.296875-.21875.8125-.359375.53125-.15625 1.125-.15625.890625 0 1.5625.265625.671875.25 1 .6875.328125.4375.4375 1.171875l-1.25.171875q-.09375-.578125-.5-.90625-.40625-.34375-1.15625-.34375-.890625 0-1.28125.296875-.375.296875-.375.6875 0 .25.15625.453125.15625.203125.5.34375.1875.078125 1.140625.328125 1.359375.359375 1.890625.59375.546875.234375.859375.6875.3125.4375.3125 1.09375 0 .640625-.375 1.21875-.375.5625-1.09375.875-.703125.3125-1.59375.3125-1.484375 0-2.265625-.609375-.765625-.625-.984375-1.828125zm7.359375-1.53125q0-2.109375 1.171875-3.125.984375-.84375 2.390625-.84375 1.578125 0 2.5625 1.03125 1 1.015625 1 2.828125 0 1.46875-.4375 2.3125-.4375.828125-1.28125 1.296875-.84375.46875-1.84375.46875-1.59375 0-2.578125-1.015625-.984375-1.03125-.984375-2.953125zm1.328125 0q0 1.453125.625 2.1875.640625.71875 1.609375.71875.96875 0 1.59375-.71875.640625-.734375.640625-2.234375 0-1.40625-.640625-2.125-.640625-.734375-1.59375-.734375-.96875 0-1.609375.71875-.625.71875-.625 2.1875zm12.260498 1.015625 1.265625.15625q-.203125 1.3125-1.0625 2.0625-.84375.734375-2.09375.734375-1.5625 0-2.515625-1.015625-.9375-1.03125-.9375-2.921875 0-1.234375.40625-2.15625.40625-.921875 1.234375-1.375.84375-.46875 1.8125-.46875 1.25 0 2.03125.625.78125.625 1.015625 1.765625l-1.265625.203125q-.171875-.765625-.625-1.15625-.453125-.390625-1.09375-.390625-.984375 0-1.59375.703125-.609375.703125-.609375 2.203125 0 1.53125.578125 2.234375.59375.6875 1.546875.6875.75 0 1.265625-.453125.515625-.46875.640625-1.4375zm2.375 2.78125v-10.484375h1.296875v5.96875l3.046875-3.078125h1.671875l-2.90625 2.8125 3.1875 4.78125h-1.578125l-2.515625-3.890625-.90625.875v3.015625zm12.53125-2.453125 1.328125.171875q-.3125 1.171875-1.171875 1.8125-.84375.640625-2.171875.640625-1.671875 0-2.65625-1.015625-.96875-1.03125-.96875-2.890625 0-1.921875.984375-2.96875 1-1.0625 2.578125-1.0625 1.515625 0 2.484375 1.03125.96875 1.03125.96875 2.921875 0 .109375-.015625.34375h-5.65625q.0625 1.25.703125 1.921875.640625.65625 1.59375.65625.703125 0 1.203125-.359375.5-.375.796875-1.203125zm-4.234375-2.078125h4.25q-.09375-.953125-.484375-1.4375-.625-.75-1.609375-.75-.875 0-1.484375.59375-.609375.59375-.671875 1.59375zm9.994843 3.375.1875 1.140625q-.546875.109375-.984375.109375-.6875 0-1.078125-.21875-.390625-.21875-.546875-.578125-.15625-.359375-.15625-1.515625v-4.375h-.953125v-1h.953125v-1.890625l1.28125-.765625v2.65625h1.296875v1h-1.296875v4.4375q0 .546875.0625.71875.078125.15625.21875.25.15625.078125.453125.078125.203125 0 .5625-.046875zm5.3314514 4.0625v-10.5h1.171875v.984375q.421875-.578125.9375-.859375.515625-.296875 1.265625-.296875.96875 0 1.71875.5.75.5 1.125 1.421875.375.90625.375 1.984375 0 1.171875-.421875 2.109375-.40625.921875-1.21875 1.421875-.796875.5-1.671875.5-.640625 0-1.15625-.265625-.515625-.28125-.84375-.6875v3.6875zm1.15625-6.65625q0 1.453125.59375 2.15625.609375.703125 1.453125.703125.859375 0 1.46875-.71875.609375-.734375.609375-2.25 0-1.453125-.609375-2.171875-.59375-.734375-1.421875-.734375-.8125 0-1.453125.78125-.640625.765625-.640625 2.234375zm6.979248 3.75v-7.59375h1.15625v1.140625q.453125-.796875.828125-1.046875.375-.265625.8125-.265625.65625 0 1.328125.40625l-.4375 1.203125q-.46875-.28125-.953125-.28125-.421875 0-.765625.25-.328125.25-.46875.703125-.21875.6875-.21875 1.5v3.984375zm4.4118958-3.796875q0-2.109375 1.171875-3.125.984375-.84375 2.390625-.84375 1.578125 0 2.5625 1.03125 1 1.015625 1 2.828125 0 1.46875-.4375 2.3125-.4375.828125-1.28125 1.296875-.84375.46875-1.84375.46875-1.59375 0-2.578125-1.015625-.984375-1.03125-.984375-2.953125zm1.328125 0q0 1.453125.625 2.1875.640625.71875 1.609375.71875.96875 0 1.59375-.71875.640625-.734375.640625-2.234375 0-1.40625-.640625-2.125-.640625-.734375-1.59375-.734375-.96875 0-1.609375.71875-.625.71875-.625 2.1875zm12.260468 1.015625 1.265625.15625q-.203125 1.3125-1.0625 2.0625-.84375.734375-2.09375.734375-1.5625 0-2.515625-1.015625-.9375-1.03125-.9375-2.921875 0-1.234375.40625-2.15625.40625-.921875 1.234375-1.375.84375-.46875 1.8125-.46875 1.25 0 2.03125.625.78125.625 1.015625 1.765625l-1.265625.203125q-.171875-.765625-.625-1.15625-.453125-.390625-1.09375-.390625-.984375 0-1.59375.703125-.609375.703125-.609375 2.203125 0 1.53125.578125 2.234375.59375.6875 1.546875.6875.75 0 1.265625-.453125.515625-.46875.640625-1.4375zm7.578125.328125 1.328125.171875q-.3125 1.171875-1.171875 1.8125-.84375.640625-2.171875.640625-1.671875 0-2.65625-1.015625-.96875-1.03125-.96875-2.890625 0-1.921875.984375-2.96875 1-1.0625 2.578125-1.0625 1.515625 0 2.484375 1.03125.96875 1.03125.96875 2.921875 0 .109375-.015625.34375h-5.65625q.0625 1.25.703125 1.921875.640625.65625 1.59375.65625.703125 0 1.203125-.359375.5-.375.796875-1.203125zm-4.234375-2.078125h4.25q-.09375-.953125-.484375-1.4375-.625-.75-1.609375-.75-.875 0-1.484375.59375-.609375.59375-.671875 1.59375zm6.666748 2.265625 1.265625-.203125q.109375.765625.59375 1.171875.5.40625 1.375.40625.890625 0 1.3125-.359375.4375-.359375.4375-.84375 0-.4375-.375-.6875-.265625-.171875-1.3125-.4375-1.421875-.359375-1.96875-.609375-.546875-.265625-.828125-.734375-.28125-.46875-.28125-1.015625 0-.515625.21875-.9375.234375-.4375.640625-.734375.296875-.21875.8125-.359375.53125-.15625 1.125-.15625.890625 0 1.5625.265625.671875.25 1 .6875.328125.4375.4375 1.171875l-1.25.171875q-.09375-.578125-.5-.90625-.40625-.34375-1.15625-.34375-.890625 0-1.28125.296875-.375.296875-.375.6875 0 .25.15625.453125.15625.203125.5.34375.1875.078125 1.140625.328125 1.359375.359375 1.890625.59375.546875.234375.859375.6875.3125.4375.3125 1.09375 0 .640625-.375 1.21875-.375.5625-1.09375.875-.703125.3125-1.59375.3125-1.484375 0-2.265625-.609375-.765625-.625-.984375-1.828125zm7.328125 0 1.265625-.203125q.109375.765625.59375 1.171875.5.40625 1.375.40625.890625 0 1.3125-.359375.4375-.359375.4375-.84375 0-.4375-.375-.6875-.265625-.171875-1.3125-.4375-1.421875-.359375-1.96875-.609375-.546875-.265625-.828125-.734375-.28125-.46875-.28125-1.015625 0-.515625.21875-.9375.234375-.4375.640625-.734375.296875-.21875.8125-.359375.53125-.15625 1.125-.15625.890625 0 1.5625.265625.671875.25 1 .6875.328125.4375.4375 1.171875l-1.25.171875q-.09375-.578125-.5-.90625-.40625-.34375-1.15625-.34375-.890625 0-1.28125.296875-.375.296875-.375.6875 0 .25.15625.453125.15625.203125.5.34375.1875.078125 1.140625.328125 1.359375.359375 1.890625.59375.546875.234375.859375.6875.3125.4375.3125 1.09375 0 .640625-.375 1.21875-.375.5625-1.09375.875-.703125.3125-1.59375.3125-1.484375 0-2.265625-.609375-.765625-.625-.984375-1.828125z" fill="#000"/><path d="m484.60892 69.7979h124.00003v46.015755h-124.00003z" fill="#cfe2f3" fill-rule="evenodd"/><path d="m484.60892 69.7979h124.00003v46.015755h-124.00003z" fill-rule="evenodd" stroke="#000" stroke-linecap="butt" stroke-linejoin="round"/><path d="m498.1876 95.62015 1.265625-.203125q.109375.765625.59375 1.171875.5.40625 1.375.40625.890625 0 1.3125-.359375.4375-.359375.4375-.84375 0-.4375-.375-.6875-.265625-.171875-1.3125-.4375-1.421875-.359375-1.96875-.609375-.546875-.265625-.828125-.734375-.28125-.46875-.28125-1.015625 0-.515625.21875-.9375.234375-.4375.640625-.734375.296875-.21875.8125-.359375.53125-.15625 1.125-.15625.890625 0 1.5625.265625.671875.25 1 .6875.328125.4375.4375 1.171875l-1.25.171875q-.09375-.578125-.5-.90625-.40625-.34375-1.15625-.34375-.890625 0-1.28125.296875-.375.296875-.375.6875 0 .25.15625.453125.15625.203125.5.34375.1875.078125 1.140625.328125 1.359375.359375 1.890625.59375.546875.234375.859375.6875.3125.4375.3125 1.09375 0 .640625-.375 1.21875-.375.5625-1.09375.875-.703125.3125-1.59375.3125-1.484375 0-2.265625-.609375-.765625-.625-.984375-1.828125zm7.359375-1.53125q0-2.109375 1.171875-3.125.984375-.84375 2.390625-.84375 1.578125 0 2.5625 1.03125 1.0000305 1.015625 1.0000305 2.828125 0 1.46875-.4375 2.3125-.43753052.828125-1.2812805 1.296875-.84375.46875-1.84375.46875-1.59375 0-2.578125-1.015625-.984375-1.03125-.984375-2.953125zm1.328125 0q0 1.453125.625 2.1875.640625.71875 1.609375.71875.96875 0 1.59375-.71875.640625-.734375.640625-2.234375 0-1.40625-.640625-2.125-.640625-.734375-1.59375-.734375-.96875 0-1.609375.71875-.625.71875-.625 2.1875zm12.260468 1.015625 1.265625.15625q-.203125 1.3125-1.0625 2.0625-.84375.734375-2.09375.734375-1.5625 0-2.515625-1.015625-.9375-1.03125-.9375-2.921875 0-1.234375.40625-2.15625.40625-.921875 1.234375-1.375.84375-.46875 1.8125-.46875 1.25 0 2.03125.625.78125.625 1.015625 1.765625l-1.265625.203125q-.171875-.765625-.625-1.15625-.453125-.390625-1.09375-.390625-.984375 0-1.59375.703125-.609375.703125-.609375 2.203125 0 1.53125.578125 2.234375.59375.6875 1.546875.6875.75 0 1.265625-.453125.515625-.46875.640625-1.4375zm2.375 2.78125v-10.484375h1.296875v5.96875l3.046875-3.078125h1.671875l-2.90625 2.8125 3.1875 4.78125h-1.578125l-2.515625-3.890625-.90625.875v3.015625zm12.53125-2.453125 1.328125.171875q-.3125 1.171875-1.171875 1.8125-.84375.640625-2.171875.640625-1.671875 0-2.65625-1.015625-.96875-1.03125-.96875-2.890625 0-1.921875.984375-2.96875 1-1.0625 2.578125-1.0625 1.515625 0 2.484375 1.03125.96875 1.03125.96875 2.921875 0 .109375-.015625.34375h-5.65625q.0625 1.25.703125 1.921875.640625.65625 1.59375.65625.703125 0 1.203125-.359375.5-.375.796875-1.203125zm-4.234375-2.078125h4.25q-.09375-.953125-.484375-1.4375-.625-.75-1.609375-.75-.875 0-1.484375.59375-.609375.59375-.671875 1.59375zm9.994873 3.375.1875 1.140625q-.546875.109375-.984375.109375-.6875 0-1.078125-.21875-.390625-.21875-.546875-.578125-.15625-.359375-.15625-1.515625v-4.375h-.953125v-1h.953125v-1.890625l1.28125-.765625v2.65625h1.296875v1h-1.296875v4.4375q0 .546875.0625.71875.078125.15625.21875.25.15625.078125.453125.078125.203125 0 .5625-.046875zm5.331482 4.0625v-10.5h1.171875v.984375q.421875-.578125.9375-.859375.515625-.296875 1.265625-.296875.96875 0 1.71875.5.75.5 1.125 1.421875.375.90625.375 1.984375 0 1.171875-.421875 2.109375-.40625.921875-1.21875 1.421875-.796875.5-1.671875.5-.640625 0-1.15625-.265625-.515625-.28125-.84375-.6875v3.6875zm1.15625-6.65625q0 1.453125.59375 2.15625.609375.703125 1.453125.703125.859375 0 1.46875-.71875.609375-.734375.609375-2.25 0-1.453125-.609375-2.171875-.59375-.734375-1.421875-.734375-.8125 0-1.453125.78125-.640625.765625-.640625 2.234375zm6.979187 3.75v-7.59375h1.15625v1.140625q.453125-.796875.828125-1.046875.375-.265625.8125-.265625.65625 0 1.328125.40625l-.4375 1.203125q-.46875-.28125-.953125-.28125-.421875 0-.765625.25-.328125.25-.46875.703125-.21875.6875-.21875 1.5v3.984375zm4.4119263-3.796875q0-2.109375 1.171875-3.125.984375-.84375 2.390625-.84375 1.578125 0 2.5625 1.03125 1 1.015625 1 2.828125 0 1.46875-.4375 2.3125-.4375.828125-1.28125 1.296875-.84375.46875-1.84375.46875-1.59375 0-2.578125-1.015625-.984375-1.03125-.984375-2.953125zm1.328125 0q0 1.453125.625 2.1875.640625.71875 1.609375.71875.96875 0 1.59375-.71875.640625-.734375.640625-2.234375 0-1.40625-.640625-2.125-.640625-.734375-1.59375-.734375-.96875 0-1.609375.71875-.625.71875-.625 2.1875zm12.260498 1.015625 1.265625.15625q-.203125 1.3125-1.0625 2.0625-.84375.734375-2.09375.734375-1.5625 0-2.515625-1.015625-.9375-1.03125-.9375-2.921875 0-1.234375.40625-2.15625.40625-.921875 1.234375-1.375.84375-.46875 1.8125-.46875 1.25 0 2.03125.625.78125.625 1.015625 1.765625l-1.265625.203125q-.171875-.765625-.625-1.15625-.453125-.390625-1.09375-.390625-.984375 0-1.59375.703125-.609375.703125-.609375 2.203125 0 1.53125.578125 2.234375.59375.6875 1.546875.6875.75 0 1.265625-.453125.515625-.46875.640625-1.4375zm7.578125.328125 1.328125.171875q-.3125 1.171875-1.171875 1.8125-.84375.640625-2.171875.640625-1.671875 0-2.65625-1.015625-.96875-1.03125-.96875-2.890625 0-1.921875.984375-2.96875 1-1.0625 2.578125-1.0625 1.515625 0 2.484375 1.03125.96875 1.03125.96875 2.921875 0 .109375-.015625.34375h-5.65625q.0625 1.25.703125 1.921875.640625.65625 1.59375.65625.703125 0 1.203125-.359375.5-.375.796875-1.203125zm-4.234375-2.078125h4.25q-.09375-.953125-.484375-1.4375-.625-.75-1.609375-.75-.875 0-1.484375.59375-.609375.59375-.671875 1.59375zm6.666687 2.265625 1.265625-.203125q.109375.765625.59375 1.171875.5.40625 1.375.40625.890625 0 1.3125-.359375.4375-.359375.4375-.84375 0-.4375-.375-.6875-.265625-.171875-1.3125-.4375-1.421875-.359375-1.96875-.609375-.546875-.265625-.828125-.734375-.28125-.46875-.28125-1.015625 0-.515625.21875-.9375.234375-.4375.640625-.734375.296875-.21875.8125-.359375.53125-.15625 1.125-.15625.890625 0 1.5625.265625.671875.25 1 .6875.328125.4375.4375 1.171875l-1.25.171875q-.09375-.578125-.5-.90625-.40625-.34375-1.15625-.34375-.890625 0-1.28125.296875-.375.296875-.375.6875 0 .25.15625.453125.15625.203125.5.34375.1875.078125 1.140625.328125 1.359375.359375 1.890625.59375.546875.234375.859375.6875.3125.4375.3125 1.09375 0 .640625-.375 1.21875-.375.5625-1.09375.875-.703125.3125-1.59375.3125-1.484375 0-2.265625-.609375-.765625-.625-.984375-1.828125zm7.328125 0 1.265625-.203125q.109375.765625.59375 1.171875.5.40625 1.375.40625.890625 0 1.3125-.359375.4375-.359375.4375-.84375 0-.4375-.375-.6875-.265625-.171875-1.3125-.4375-1.421875-.359375-1.96875-.609375-.546875-.265625-.828125-.734375-.28125-.46875-.28125-1.015625 0-.515625.21875-.9375.234375-.4375.640625-.734375.296875-.21875.8125-.359375.53125-.15625 1.125-.15625.890625 0 1.5625.265625.671875.25 1 .6875.328125.4375.4375 1.171875l-1.25.171875q-.09375-.578125-.5-.90625-.40625-.34375-1.15625-.34375-.890625 0-1.28125.296875-.375.296875-.375.6875 0 .25.15625.453125.15625.203125.5.34375.1875.078125 1.140625.328125 1.359375.359375 1.890625.59375.546875.234375.859375.6875.3125.4375.3125 1.09375 0 .640625-.375 1.21875-.375.5625-1.09375.875-.703125.3125-1.59375.3125-1.484375 0-2.265625-.609375-.765625-.625-.984375-1.828125z" fill="#000"/><path d="m15.608924 15.7979h380v36h-380z" fill="none"/><path d="m28.374548 42.7179-3.53125-13.359375h1.8125l2.03125 8.765625q.328125 1.375.5625 2.71875.5-2.140625.59375-2.46875l2.546877-9.015625h2.125l1.921875 6.765625q.71875 2.515625 1.03125 4.71875.265625-1.265625.671875-2.890625l2.09375-8.59375h1.78125l-3.671875 13.359375h-1.703125l-2.8125-10.171875q-.359375-1.28125-.421875-1.5625-.203125.90625-.390625 1.5625l-2.828127 10.171875zm21.70241-3.109375 1.6875.203125q-.40625 1.484375-1.484375 2.3125-1.078125.8125-2.765625.8125-2.125 0-3.375-1.296875-1.234375-1.3125-1.234375-3.671875 0-2.453125 1.25-3.796875 1.265625-1.34375 3.265625-1.34375 1.9375 0 3.15625 1.328125 1.234375 1.3125 1.234375 3.703125 0 .15625 0 .4375h-7.21875q.09375 1.59375.90625 2.453125.8125.84375 2.015625.84375.90625 0 1.546875-.46875.640625-.484375 1.015625-1.515625zm-5.390625-2.65625h5.40625q-.109375-1.21875-.625-1.828125-.78125-.953125-2.03125-.953125-1.125 0-1.90625.765625-.765625.75-.84375 2.015625zm10.641342 5.765625h-1.515625v-13.359375h1.640625v4.765625q1.046875-1.296875 2.65625-1.296875.890625 0 1.6875.359375.796875.359375 1.3125 1.015625.515625.640625.796875 1.5625.296875.921875.296875 1.96875 0 2.484375-1.234375 3.84375-1.21875 1.359375-2.953125 1.359375-1.703125 0-2.6875-1.4375zm-.015625-4.90625q0 1.734375.484375 2.515625.765625 1.265625 2.09375 1.265625 1.078125 0 1.859375-.9375.78125-.9375.78125-2.78125 0-1.890625-.75-2.796875-.75-.90625-1.828125-.90625-1.0625 0-1.859375.9375-.78125.9375-.78125 2.703125zm8.500717.609375 1.65625-.140625q.125 1 .546875 1.640625.4375.640625 1.34375 1.046875.921875.390625 2.0625.390625 1 0 1.78125-.296875.78125-.296875 1.15625-.8125.375-.53125.375-1.15625 0-.625-.375-1.09375-.359375-.46875-1.1875-.796875-.546875-.203125-2.390625-.640625-1.828125-.453125-2.5625-.84375-.96875-.5-1.4375-1.234375-.46875-.75-.46875-1.671875 0-1 .578125-1.875.578125-.890625 1.671875-1.34375 1.109375-.453125 2.453125-.453125 1.484375 0 2.609375.484375 1.140625.46875 1.75 1.40625.609375.921875.65625 2.09375l-1.6875.125q-.140625-1.265625-.9375-1.90625-.78125-.65625-2.3125-.65625-1.609375 0-2.34375.59375-.734375.59375-.734375 1.421875 0 .71875.53125 1.171875.5.46875 2.65625.96875 2.15625.484375 2.953125.84375 1.171875.53125 1.71875 1.359375.5625.828125.5625 1.90625 0 1.0625-.609375 2.015625-.609375.9375-1.75 1.46875-1.140625.515625-2.578125.515625-1.8125 0-3.046875-.53125-1.21875-.53125-1.921875-1.59375-.6875-1.0625-.71875-2.40625zm12.224823-.546875q0-2.6875 1.484375-3.96875 1.25-1.078125 3.046875-1.078125 2 0 3.265625 1.3125 1.265625 1.296875 1.265625 3.609375 0 1.859375-.5625 2.9375-.5625 1.0625-1.640625 1.65625-1.0625.59375-2.328125.59375-2.03125 0-3.28125-1.296875-1.25-1.3125-1.25-3.765625zm1.6875 0q0 1.859375.796875 2.796875.8125.921875 2.046875.921875 1.21875 0 2.03125-.921875.8125-.9375.8125-2.84375 0-1.796875-.8125-2.71875-.8125-.921875-2.03125-.921875-1.234375 0-2.046875.921875-.796875.90625-.796875 2.765625zm15.610092 1.296875 1.609375.21875q-.265625 1.65625-1.359375 2.609375-1.078125.9375-2.671875.9375-1.984375 0-3.1875-1.296875-1.203125-1.296875-1.203125-3.71875 0-1.578125.515625-2.75.515625-1.171875 1.578125-1.75 1.0625-.59375 2.3125-.59375 1.578125 0 2.578125.796875 1 .796875 1.28125 2.265625l-1.59375.234375q-.234375-.96875-.8125-1.453125-.578125-.5-1.390625-.5-1.234375 0-2.015625.890625-.78125.890625-.78125 2.8125 0 1.953125.75 2.84375.75.875 1.953125.875.96875 0 1.609375-.59375.65625-.59375.828125-1.828125zm3.015625 3.546875v-13.359375h1.640625v7.625l3.890625-3.9375h2.109375l-3.6875 3.59375 4.0625 6.078125h-2.015625l-3.203125-4.953125-1.15625 1.125v3.828125zm15.953125-3.109375 1.6875.203125q-.40625 1.484375-1.484375 2.3125-1.078125.8125-2.765625.8125-2.125 0-3.375-1.296875-1.234375-1.3125-1.234375-3.671875 0-2.453125 1.25-3.796875 1.265625-1.34375 3.265625-1.34375 1.9375 0 3.15625 1.328125 1.234375 1.3125 1.234375 3.703125 0 .15625 0 .4375h-7.21875q.09375 1.59375.90625 2.453125.8125.84375 2.015625.84375.90625 0 1.546875-.46875.640625-.484375 1.015625-1.515625zm-5.390625-2.65625h5.40625q-.109375-1.21875-.625-1.828125-.78125-.953125-2.03125-.953125-1.125 0-1.90625.765625-.765625.75-.84375 2.015625zm12.719467 4.296875.234375 1.453125q-.6875.140625-1.234375.140625-.890625 0-1.390625-.28125-.484375-.28125-.6875-.734375-.203125-.46875-.203125-1.9375v-5.578125h-1.203125v-1.265625h1.203125v-2.390625l1.625-.984375v3.375h1.65625v1.265625h-1.65625v5.671875q0 .6875.078125.890625.09375.203125.28125.328125.203125.109375.578125.109375.265625 0 .71875-.0625zm6.1322327-1.421875 1.625-.25q.125.96875.7499924 1.5.625.515625 1.75.515625 1.125 0 1.671875-.453125.546875-.46875.546875-1.09375 0-.546875-.484375-.875-.328125-.21875-1.671875-.546875-1.8125-.46875-2.5156174-.796875-.6875-.328125-1.046875-.90625-.359375-.59375-.359375-1.3125 0-.640625.296875-1.1875.296875-.5625.8125-.921875.375-.28125 1.0312424-.46875.671875-.203125 1.421875-.203125 1.140625 0 2 .328125.859375.328125 1.265625.890625.421875.5625.578125 1.5l-1.609375.21875q-.109375-.75-.640625-1.171875-.515625-.421875-1.46875-.421875-1.140625 0-1.625.375-.46874237.375-.46874237.875 0 .3125.1875.578125.20311737.265625.6406174.4375.234375.09375 1.4375.421875 1.75.453125 2.4375.75.6875.296875 1.078125.859375.390625.5625.390625 1.40625 0 .828125-.484375 1.546875-.46875.71875-1.375 1.125-.90625.390625-2.046875.390625-1.875 0-2.8749924-.78125-.984375-.78125-1.25-2.328125zm16.609367-.21875 1.6875.203125q-.40625 1.484375-1.484375 2.3125-1.078125.8125-2.765625.8125-2.125 0-3.375-1.296875-1.234375-1.3125-1.234375-3.671875 0-2.453125 1.25-3.796875 1.265625-1.34375 3.265625-1.34375 1.9375 0 3.15625 1.328125 1.234375 1.3125 1.234375 3.703125 0 .15625 0 .4375h-7.21875q.09375 1.59375.90625 2.453125.8125.84375 2.015625.84375.90625 0 1.546875-.46875.640625-.484375 1.015625-1.515625zm-5.390625-2.65625h5.40625q-.109375-1.21875-.625-1.828125-.78125-.953125-2.03125-.953125-1.125 0-1.90625.765625-.765625.75-.84375 2.015625zm9.125717 5.765625v-9.671875h1.46875v1.46875q.5625-1.03125 1.03125-1.359375.484375-.328125 1.0625-.328125.828125 0 1.6875.53125l-.5625 1.515625q-.609375-.359375-1.203125-.359375-.546875 0-.96875.328125-.421875.328125-.609375.890625-.28125.875-.28125 1.921875v5.0625zm8.915802 0-3.6875-9.671875h1.734375l2.078125 5.796875q.328125.9375.625 1.9375.203125-.765625.609375-1.828125l2.140625-5.90625h1.6875l-3.65625 9.671875zm13.265625-3.109375 1.6875.203125q-.40625 1.484375-1.484375 2.3125-1.078125.8125-2.765625.8125-2.125 0-3.375-1.296875-1.234375-1.3125-1.234375-3.671875 0-2.453125 1.25-3.796875 1.265625-1.34375 3.265625-1.34375 1.9375 0 3.15625 1.328125 1.234375 1.3125 1.234375 3.703125 0 .15625 0 .4375h-7.21875q.09375 1.59375.90625 2.453125.8125.84375 2.015625.84375.90625 0 1.546875-.46875.640625-.484375 1.015625-1.515625zm-5.390625-2.65625h5.40625q-.109375-1.21875-.625-1.828125-.78125-.953125-2.03125-.953125-1.125 0-1.90625.765625-.765625.75-.84375 2.015625zm9.125717 5.765625v-9.671875h1.46875v1.46875q.5625-1.03125 1.03125-1.359375.484375-.328125 1.0625-.328125.828125 0 1.6875.53125l-.5625 1.515625q-.609375-.359375-1.203125-.359375-.546875 0-.96875.328125-.421875.328125-.609375.890625-.28125.875-.28125 1.921875v5.0625zm11.411606 0v-9.671875h1.46875v1.359375q.453125-.71875 1.203125-1.140625.765625-.4375 1.71875-.4375 1.078125 0 1.765625.453125.6875.4375.96875 1.234375 1.15625-1.6875 2.984375-1.6875 1.453125 0 2.21875.796875.78125.796875.78125 2.453125v6.640625h-1.640625v-6.09375q0-.984375-.15625-1.40625-.15625-.4375-.578125-.703125-.421875-.265625-.984375-.265625-1.015625 0-1.6875.6875-.671875.671875-.671875 2.15625v5.625h-1.640625v-6.28125q0-1.09375-.40625-1.640625-.40625-.546875-1.3125-.546875-.6875 0-1.28125.359375-.59375.359375-.859375 1.0625-.25.703125-.25 2.03125v5.015625zm21.853302-1.1875q-.921875.765625-1.765625 1.09375-.828125.3125-1.796875.3125-1.59375 0-2.453125-.78125-.859375-.78125-.859375-1.984375 0-.71875.328125-1.296875.328125-.59375.84375-.9375.53125-.359375 1.1875-.546875.46875-.125 1.453125-.25 1.984375-.234375 2.921875-.5625.015625-.34375.015625-.421875 0-1-.46875-1.421875-.625-.546875-1.875-.546875-1.15625 0-1.703125.40625-.546875.40625-.8125 1.421875l-1.609375-.21875q.21875-1.015625.71875-1.640625.5-.640625 1.453125-.984375.953125-.34375 2.1875-.34375 1.25 0 2.015625.296875.78125.28125 1.140625.734375.375.4375.515625 1.109375.078125.421875.078125 1.515625v2.1875q0 2.28125.109375 2.890625.109375.59375.40625 1.15625h-1.703125q-.265625-.515625-.328125-1.1875zm-.140625-3.671875q-.890625.375-2.671875.625-1.015625.140625-1.4375.328125-.421875.1875-.65625.53125-.21875.34375-.21875.78125 0 .65625.5 1.09375.5.4375 1.453125.4375.9375 0 1.671875-.40625.75-.421875 1.09375-1.140625.265625-.5625.265625-1.640625zm10.516342 1.3125 1.609375.21875q-.265625 1.65625-1.359375 2.609375-1.078125.9375-2.671875.9375-1.984375 0-3.1875-1.296875-1.203125-1.296875-1.203125-3.71875 0-1.578125.515625-2.75.515625-1.171875 1.578125-1.75 1.0625-.59375 2.3125-.59375 1.578125 0 2.578125.796875 1 .796875 1.28125 2.265625l-1.59375.234375q-.234375-.96875-.8125-1.453125-.578125-.5-1.390625-.5-1.234375 0-2.015625.890625-.78125.890625-.78125 2.8125 0 1.953125.75 2.84375.75.875 1.953125.875.96875 0 1.609375-.59375.65625-.59375.828125-1.828125zm3.015625 3.546875v-13.359375h1.640625v4.796875q1.140625-1.328125 2.890625-1.328125 1.078125 0 1.859375.421875.796875.421875 1.140625 1.171875.34375.75.34375 2.171875v6.125h-1.640625v-6.125q0-1.234375-.53125-1.796875-.53125-.5625-1.515625-.5625-.71875 0-1.359375.390625-.640625.375-.921875 1.015625-.265625.640625-.265625 1.78125v5.296875zm10.375717-11.46875v-1.890625h1.640625v1.890625zm0 11.46875v-9.671875h1.640625v9.671875zm4.144821 0v-9.671875h1.46875v1.375q1.0625-1.59375 3.078125-1.59375.875 0 1.609375.3125.734375.3125 1.09375.828125.375.5.515625 1.203125.09375.453125.09375 1.59375v5.953125h-1.640625v-5.890625q0-1-.203125-1.484375-.1875-.5-.671875-.796875-.484375-.296875-1.140625-.296875-1.046875 0-1.8125.671875-.75.65625-.75 2.515625v5.28125zm17.000717-3.109375 1.6875.203125q-.40625 1.484375-1.484375 2.3125-1.078125.8125-2.765625.8125-2.125 0-3.375-1.296875-1.234375-1.3125-1.234375-3.671875 0-2.453125 1.25-3.796875 1.265625-1.34375 3.265625-1.34375 1.9375 0 3.15625 1.328125 1.234375 1.3125 1.234375 3.703125 0 .15625 0 .4375h-7.21875q.09375 1.59375.90625 2.453125.8125.84375 2.015625.84375.90625 0 1.546875-.46875.640625-.484375 1.015625-1.515625zm-5.390625-2.65625h5.40625q-.109375-1.21875-.625-1.828125-.78125-.953125-2.03125-.953125-1.125 0-1.90625.765625-.765625.75-.84375 2.015625zm17.449646 9.6875q-1.359375-1.703125-2.296875-4-.9375-2.296875-.9375-4.765625 0-2.15625.703125-4.140625.828125-2.3125 2.53125-4.59375h1.171875q-1.09375 1.890625-1.453125 2.703125-.546875 1.25-.875 2.625-.390625 1.703125-.390625 3.421875 0 4.375 2.71875 8.75zm9.243927-.21875v-4.734375q-.375.546875-1.0625.90625-.6875.34375-1.46875.34375-1.71875 0-2.96875-1.375-1.234375-1.375-1.234375-3.765625 0-1.46875.5-2.625.515625-1.15625 1.46875-1.75.96875-.59375 2.109375-.59375 1.796875 0 2.828125 1.515625v-1.296875h1.46875v13.375zm-5.046875-8.5625q0 1.859375.78125 2.796875.78125.9375 1.875.9375 1.046875 0 1.796875-.890625.765625-.890625.765625-2.703125 0-1.9375-.796875-2.90625-.796875-.96875-1.875-.96875-1.0625 0-1.8125.90625-.734375.90625-.734375 2.828125zm15.594482 4.859375v-1.421875q-1.125 1.640625-3.0625 1.640625-.859375 0-1.609375-.328125-.734375-.328125-1.09375-.828125-.359375-.5-.5-1.21875-.109375-.46875-.109375-1.53125v-5.984375h1.640625v5.359375q0 1.28125.109375 1.734375.15625.640625.65625 1.015625.5.375 1.234375.375.734375 0 1.375-.375.65625-.390625.921875-1.03125.265625-.65625.265625-1.890625v-5.1875h1.640625v9.671875zm10.360077-1.1875q-.921875.765625-1.765625 1.09375-.828125.3125-1.796875.3125-1.59375 0-2.453125-.78125-.859375-.78125-.859375-1.984375 0-.71875.328125-1.296875.328125-.59375.84375-.9375.53125-.359375 1.1875-.546875.46875-.125 1.453125-.25 1.984375-.234375 2.921875-.5625.015625-.34375.015625-.421875 0-1-.46875-1.421875-.625-.546875-1.875-.546875-1.15625 0-1.703125.40625-.546875.40625-.8125 1.421875l-1.609375-.21875q.21875-1.015625.71875-1.640625.5-.640625 1.453125-.984375.953125-.34375 2.1875-.34375 1.25 0 2.015625.296875.78125.28125 1.140625.734375.375.4375.515625 1.109375.078125.421875.078125 1.515625v2.1875q0 2.28125.109375 2.890625.109375.59375.40625 1.15625h-1.703125q-.265625-.515625-.328125-1.1875zm-.140625-3.671875q-.890625.375-2.671875.625-1.015625.140625-1.4375.328125-.421875.1875-.65625.53125-.21875.34375-.21875.78125 0 .65625.5 1.09375.5.4375 1.453125.4375.9375 0 1.671875-.40625.75-.421875 1.09375-1.140625.265625-.5625.265625-1.640625zm10.469452 4.859375v-1.21875q-.90625 1.4375-2.703125 1.4375-1.15625 0-2.125-.640625-.96875-.640625-1.5-1.78125-.53125-1.140625-.53125-2.625 0-1.453125.484375-2.625.484375-1.1875 1.4375-1.8125.96875-.625 2.171875-.625.875 0 1.546875.375.6875.359375 1.109375.953125v-4.796875h1.640625v13.359375zm-5.171875-4.828125q0 1.859375.78125 2.78125.78125.921875 1.84375.921875 1.078125 0 1.828125-.875.75-.890625.75-2.6875 0-1.984375-.765625-2.90625-.765625-.9375-1.890625-.9375-1.078125 0-1.8125.890625-.734375.890625-.734375 2.8125zm8.641357.8125v-1.640625h5.03125v1.640625zm13.165802.46875 1.609375.21875q-.265625 1.65625-1.359375 2.609375-1.078125.9375-2.671875.9375-1.984375 0-3.1875-1.296875-1.203125-1.296875-1.203125-3.71875 0-1.578125.515625-2.75.515625-1.171875 1.578125-1.75 1.0625-.59375 2.3125-.59375 1.578125 0 2.578125.796875 1 .796875 1.28125 2.265625l-1.59375.234375q-.234375-.96875-.8125-1.453125-.578125-.5-1.390625-.5-1.234375 0-2.015625.890625-.78125.890625-.78125 2.8125 0 1.953125.75 2.84375.75.875 1.953125.875.96875 0 1.609375-.59375.65625-.59375.828125-1.828125zm2.40625-1.296875q0-2.6875 1.484375-3.96875 1.25-1.078125 3.046875-1.078125 2 0 3.265625 1.3125 1.265625 1.296875 1.265625 3.609375 0 1.859375-.5625 2.9375-.5625 1.0625-1.640625 1.65625-1.0625.59375-2.328125.59375-2.03125 0-3.28125-1.296875-1.25-1.3125-1.25-3.765625zm1.6875 0q0 1.859375.796875 2.796875.8125.921875 2.046875.921875 1.21875 0 2.03125-.921875.8125-.9375.8125-2.84375 0-1.796875-.8125-2.71875-.8125-.921875-2.03125-.921875-1.234375 0-2.046875.921875-.796875.90625-.796875 2.765625zm9.281952 4.84375v-9.671875h1.46875v1.46875q.5625-1.03125 1.03125-1.359375.484375-.328125 1.0625-.328125.828125 0 1.6875.53125l-.5625 1.515625q-.609375-.359375-1.203125-.359375-.546875 0-.96875.328125-.421875.328125-.609375.890625-.28125.875-.28125 1.921875v5.0625zm12.853302-3.109375 1.6875.203125q-.40625 1.484375-1.484375 2.3125-1.078125.8125-2.765625.8125-2.125 0-3.375-1.296875-1.234375-1.3125-1.234375-3.671875 0-2.453125 1.25-3.796875 1.265625-1.34375 3.265625-1.34375 1.9375 0 3.15625 1.328125 1.234375 1.3125 1.234375 3.703125 0 .15625 0 .4375h-7.21875q.09375 1.59375.90625 2.453125.8125.84375 2.015625.84375.90625 0 1.546875-.46875.640625-.484375 1.015625-1.515625zm-5.390625-2.65625h5.40625q-.109375-1.21875-.625-1.828125-.78125-.953125-2.03125-.953125-1.125 0-1.90625.765625-.765625.75-.84375 2.015625zm10.219452 9.6875h-1.1875q2.734375-4.375 2.734375-8.75 0-1.71875-.390625-3.390625-.3125-1.375-.875-2.625-.359375-.828125-1.46875-2.734375h1.1875q1.703125 2.28125 2.53125 4.59375.6875 1.984375.6875 4.140625 0 2.46875-.9375 4.765625-.9375 2.296875-2.28125 4z" fill="#000"/></g></svg>